<svg width="20" height="20" viewBox="0 0 20 20" fill="none" xmlns="http://www.w3.org/2000/svg">
<path d="M10.2133 18.5445L13.0797 12.8125L16.25 12.8125C16.9959 12.8125 17.7113 12.5162 18.2387 11.9887C18.7662 11.4613 19.0625 10.7459 19.0625 10C19.0625 9.25408 18.7662 8.53871 18.2387 8.01126C17.7113 7.48382 16.9959 7.1875 16.25 7.1875L13.0797 7.1875L10.2133 1.45547C10.1354 1.29983 10.0157 1.16895 9.86768 1.07746C9.71963 0.985984 9.54903 0.93752 9.375 0.9375L6.875 0.937499C6.7363 0.937472 6.59932 0.96822 6.47395 1.02753C6.34857 1.08683 6.23791 1.17322 6.14995 1.28046C6.06199 1.3877 5.99892 1.51312 5.96529 1.64768C5.93166 1.78224 5.9283 1.92258 5.95547 2.05859L6.98125 7.1875L6.01562 7.1875L5.03828 6.21172C4.95115 6.12469 4.84773 6.05567 4.73392 6.00862C4.62011 5.96157 4.49815 5.9374 4.375 5.9375L1.875 5.9375C1.72177 5.9375 1.57088 5.97507 1.43553 6.0469C1.30019 6.11873 1.18451 6.22264 1.09863 6.34954C1.01275 6.47643 0.959277 6.62245 0.942899 6.7748C0.926522 6.92715 0.947737 7.08119 1.00469 7.22344L2.11562 10L1.00469 12.7766C0.960145 12.8873 0.937333 13.0056 0.937497 13.125C0.937497 13.3736 1.03627 13.6121 1.21208 13.7879C1.3879 13.9637 1.62636 14.0625 1.875 14.0625L4.375 14.0625C4.49815 14.0626 4.62011 14.0384 4.73392 13.9914C4.84773 13.9443 4.95115 13.8753 5.03828 13.7883L6.01562 12.8125L6.98125 12.8125L5.95547 17.9414C5.9283 18.0774 5.93166 18.2178 5.96529 18.3523C5.99892 18.4869 6.06199 18.6123 6.14995 18.7195C6.23791 18.8268 6.34857 18.9132 6.47395 18.9725C6.59932 19.0318 6.7363 19.0625 6.875 19.0625L9.375 19.0625C9.54903 19.0625 9.71963 19.014 9.86768 18.9225C10.0157 18.8311 10.1354 18.7002 10.2133 18.5445ZM8.01875 17.1875L9.04453 12.0586C9.07169 11.9226 9.06834 11.7822 9.0347 11.6477C9.00107 11.5131 8.93801 11.3877 8.85005 11.2805C8.76209 11.1732 8.65143 11.0868 8.52605 11.0275C8.40067 10.9682 8.2637 10.9375 8.125 10.9375L5.625 10.9375C5.50185 10.9374 5.37988 10.9616 5.26608 11.0086C5.15227 11.0557 5.04885 11.1247 4.96172 11.2117L3.98437 12.1875L3.25703 12.1875L3.99297 10.3484C4.08251 10.1248 4.08251 9.87522 3.99297 9.65156L3.25937 7.8125L3.98437 7.8125L4.95937 8.78828C5.04678 8.87559 5.15058 8.94477 5.26482 8.99183C5.37905 9.03889 5.50145 9.0629 5.625 9.0625L8.125 9.0625C8.2637 9.06253 8.40067 9.03178 8.52605 8.97247C8.65143 8.91317 8.76209 8.82678 8.85005 8.71954C8.93801 8.6123 9.00107 8.48688 9.0347 8.35232C9.06834 8.21776 9.07169 8.07742 9.04453 7.94141L8.01875 2.8125L8.79531 2.8125L11.6617 8.54453C11.7396 8.70017 11.8593 8.83105 12.0073 8.92253C12.1554 9.01402 12.326 9.06248 12.5 9.0625L16.25 9.0625C16.4986 9.0625 16.7371 9.16127 16.9129 9.33709C17.0887 9.5129 17.1875 9.75136 17.1875 10C17.1875 10.2486 17.0887 10.4871 16.9129 10.6629C16.7371 10.8387 16.4986 10.9375 16.25 10.9375L12.5 10.9375C12.326 10.9375 12.1554 10.986 12.0073 11.0775C11.8593 11.1689 11.7396 11.2998 11.6617 11.4555L8.79531 17.1875L8.01875 17.1875Z" fill="#A3A3A3"/>
<path d="M8.01875 17.1875L9.04453 12.0586C9.07169 11.9226 9.06834 11.7822 9.0347 11.6477C9.00107 11.5131 8.93801 11.3877 8.85005 11.2805C8.76209 11.1732 8.65143 11.0868 8.52605 11.0275C8.40067 10.9682 8.2637 10.9375 8.125 10.9375L5.625 10.9375C5.50185 10.9374 5.37988 10.9616 5.26608 11.0086C5.15227 11.0557 5.04885 11.1247 4.96172 11.2117L3.98437 12.1875L3.25703 12.1875L3.99297 10.3484C4.08251 10.1248 4.08251 9.87522 3.99297 9.65156L3.25937 7.8125L3.98437 7.8125L4.95937 8.78828C5.04678 8.87559 5.15058 8.94477 5.26482 8.99183C5.37905 9.03889 5.50145 9.0629 5.625 9.0625L8.125 9.0625C8.2637 9.06253 8.40067 9.03178 8.52605 8.97247C8.65143 8.91317 8.76209 8.82678 8.85005 8.71954C8.93801 8.6123 9.00107 8.48688 9.0347 8.35232C9.06834 8.21776 9.07169 8.07742 9.04453 7.94141L8.01875 2.8125L8.79531 2.8125L11.6617 8.54453C11.7396 8.70017 11.8593 8.83105 12.0073 8.92253C12.1554 9.01402 12.326 9.06248 12.5 9.0625L16.25 9.0625C16.4986 9.0625 16.7371 9.16127 16.9129 9.33709C17.0887 9.5129 17.1875 9.75136 17.1875 10C17.1875 10.2486 17.0887 10.4871 16.9129 10.6629C16.7371 10.8387 16.4986 10.9375 16.25 10.9375L12.5 10.9375C12.326 10.9375 12.1554 10.986 12.0073 11.0775C11.8593 11.1689 11.7396 11.2998 11.6617 11.4555L8.79531 17.1875L8.01875 17.1875Z" fill="#A3A3A3"/>
</svg>
