<svg width="107" height="24" viewBox="0 0 107 24" fill="none" xmlns="http://www.w3.org/2000/svg">
<g clip-path="url(#clip0_347_2516)">
<path d="M3.84211 5.81982L0 16.1898H2.75126L5.26119 9.00982L7.70354 16.1898H10.4548L6.68991 5.81982H3.84211Z" fill="#1DB898"/>
<path d="M14.6736 5.81982H12.0479V16.1898H14.6736V5.81982Z" fill="#1DB898"/>
<path d="M24.5395 10.5801C25.167 9.41006 24.9063 7.78006 24.4044 7.12006C23.912 6.46006 23.0915 5.81006 21.3249 5.81006H17.5117V16.1801H20.1375V12.1701L22.7633 16.1801H25.8234L22.715 11.9301C22.715 11.9301 23.912 11.7501 24.5395 10.5801ZM21.6145 10.2201C21.016 10.5801 20.1375 10.4801 20.1375 10.4801V7.89006C20.1375 7.89006 20.8518 7.81006 21.4407 8.04006C21.8848 8.21006 22.184 8.58006 22.184 9.13006C22.184 9.68006 22.0006 10.0001 21.6145 10.2301V10.2201Z" fill="#1DB898"/>
<path d="M33.0827 9.51997C32.5614 9.33997 32.3104 9.03997 32.3491 8.61997C32.3877 8.20997 32.7352 7.84997 33.2082 7.77997C34.1832 7.62997 35.2355 8.40997 35.2355 8.40997L36.2201 6.41997C35.4961 5.96997 34.4149 5.45997 32.8703 5.54997C30.8721 5.66997 29.7329 7.08997 29.6461 8.69997C29.5785 10.03 30.1577 11.16 31.905 11.79C32.5325 12.01 33.4689 12.19 33.7874 12.68C34.1929 13.3 33.7778 14.39 32.3104 14.15C31.3065 13.98 30.3315 13.14 30.3315 13.14L29.231 15.28C29.231 15.28 30.93 16.65 33.2758 16.45C36.6835 16.16 37.0503 12.89 36.3746 11.55C35.7085 10.22 34.106 9.86997 33.0731 9.50997L33.0827 9.51997Z" fill="#1DB898"/>
<path d="M41.5005 12.1098H44.3096V9.83982H41.5198V8.01982H44.4738V5.81982H38.9326V16.1898H44.6186V13.9198H41.5005V12.1098Z" fill="#1DB898"/>
<path d="M52.0035 5.47998C48.9722 5.47998 46.5396 7.83998 46.5396 10.97C46.5396 14.1 48.7502 16.53 52.0035 16.53C55.2567 16.53 57.4674 14.24 57.4674 10.97C57.4674 7.69998 55.0347 5.47998 52.0035 5.47998ZM52.0035 13.94C50.4203 13.94 49.1846 12.62 49.1846 10.95C49.1846 9.27998 50.5168 8.06998 52.0035 8.06998C53.4901 8.06998 54.8223 9.32998 54.8223 10.95C54.8223 12.57 53.5963 13.94 52.0035 13.94Z" fill="#1DB898"/>
<path d="M66.0111 11.9398C66.0111 13.7698 65.0071 14.1098 64.3314 14.1098C63.6556 14.1098 62.4972 13.8598 62.4972 11.8898V5.81982H59.9004V11.9698C59.9004 15.1698 61.6477 16.4698 64.37 16.4698C67.0923 16.4698 68.6272 14.9198 68.6272 12.0998V5.81982H66.0111V11.9398Z" fill="#1DB898"/>
<path d="M74.0427 13.9398V5.81982H71.4556V16.1898H77.0643V15.0298V13.9398H74.0427Z" fill="#1DB898"/>
<path d="M95.9948 7.76002L93.3593 0.52002H89.0635L83.2617 16.17H87.4128L91.2066 5.34002L92.7994 10.02C93.6489 9.02002 94.7398 8.24002 95.9851 7.76002H95.9948Z" fill="#1DB898"/>
<path d="M94.8174 15.2704C94.8174 15.5804 94.8463 15.8804 94.9043 16.1704H99.0553L97.3176 11.3804C95.8793 12.0304 94.8174 13.5004 94.8174 15.2604V15.2704Z" fill="#1DB898"/>
<path d="M98.9583 7.22021C97.9157 7.22021 96.9117 7.41022 95.9947 7.77022L97.3172 11.3902C97.8288 11.1602 98.3887 11.0302 98.9583 11.0302C101.15 11.0302 103.1 12.8802 103.1 15.2702C103.1 17.6602 101.294 19.6702 98.9583 19.6702C96.9117 19.6702 95.2803 18.1902 94.8941 16.1702L92.809 10.0202C91.6216 11.4202 90.9072 13.2402 90.9072 15.3002C90.9072 20.1002 94.1508 23.4802 98.9486 23.4802C103.746 23.4802 106.99 20.1002 106.99 15.3002C106.99 10.5002 103.409 7.22021 98.9486 7.22021H98.9583Z" fill="#B4BBB0"/>
<path d="M94.817 15.27C94.817 13.51 95.8789 12.04 97.3173 11.39L95.9948 7.77002C94.7494 8.25002 93.6586 9.03002 92.8091 10.03L94.8943 16.18C94.8363 15.89 94.8074 15.59 94.8074 15.28L94.817 15.27Z" fill="#028B7F"/>
</g>
<defs>
<clipPath id="clip0_347_2516">
<rect width="107" height="22.96" fill="white" transform="translate(0 0.52002)"/>
</clipPath>
</defs>
</svg>
