<svg width="24" height="24" viewBox="0 0 24 24" fill="none" xmlns="http://www.w3.org/2000/svg">
<path d="M13.5 0.1875C14.1962 0.1875 14.8642 0.463772 15.3564 0.956055C15.8487 1.44834 16.125 2.11631 16.125 2.8125V4.3125H18C18.4973 4.3125 18.9745 4.5097 19.3262 4.86133C19.6778 5.21296 19.875 5.69022 19.875 6.1875V19.6875C19.875 20.1848 19.6778 20.662 19.3262 21.0137C18.9745 21.3653 18.4973 21.5625 18 21.5625H16.875V22.6875C16.875 22.9859 16.7569 23.2724 16.5459 23.4834C16.3349 23.6944 16.0484 23.8125 15.75 23.8125C15.4516 23.8125 15.1651 23.6944 14.9541 23.4834C14.7431 23.2724 14.625 22.9859 14.625 22.6875V21.5625H9.375V22.6875C9.375 22.9859 9.25688 23.2724 9.0459 23.4834C8.83492 23.6944 8.54837 23.8125 8.25 23.8125C7.95163 23.8125 7.66508 23.6944 7.4541 23.4834C7.24312 23.2724 7.125 22.9859 7.125 22.6875V21.5625H6C5.50272 21.5625 5.02546 21.3653 4.67383 21.0137C4.3222 20.662 4.125 20.1848 4.125 19.6875V6.1875C4.125 5.69022 4.3222 5.21296 4.67383 4.86133C5.02546 4.5097 5.50272 4.3125 6 4.3125H7.875V2.8125C7.875 2.11631 8.15127 1.44834 8.64355 0.956055C9.13584 0.463772 9.80381 0.1875 10.5 0.1875H13.5ZM9.37109 7.6875C8.75194 7.68751 8.25001 8.18944 8.25 8.80859V17.1553C8.25024 17.7742 8.75208 18.2764 9.37109 18.2764C9.99012 18.2764 10.4919 17.7742 10.4922 17.1553V8.80859C10.4922 8.18943 9.99026 7.6875 9.37109 7.6875ZM14.6133 7.6875C13.9942 7.68751 13.4923 8.18952 13.4922 8.80859V17.1553C13.4923 17.7743 13.9942 18.2764 14.6133 18.2764C15.2324 18.2764 15.7342 17.7743 15.7344 17.1553V8.80859C15.7343 8.18951 15.2324 7.6875 14.6133 7.6875ZM10.5 2.4375C10.4005 2.4375 10.3047 2.47655 10.2344 2.54688C10.164 2.6172 10.125 2.71304 10.125 2.8125V4.3125H13.875V2.8125C13.875 2.71304 13.836 2.6172 13.7656 2.54688C13.6953 2.47655 13.5995 2.4375 13.5 2.4375H10.5Z" fill="#666666"/>
</svg>
