<svg width="20" height="20" viewBox="0 0 20 20" fill="none" xmlns="http://www.w3.org/2000/svg">
<path d="M3.66443 6.44572L9.52068 12.2095C9.64845 12.3359 9.82094 12.4068 10.0007 12.4068C10.1804 12.4068 10.3529 12.3359 10.4807 12.2095L16.3369 6.44697C16.4655 6.32062 16.6385 6.24983 16.8188 6.24983C16.9991 6.24983 17.1721 6.32062 17.3007 6.44697C17.364 6.50869 17.4143 6.58246 17.4487 6.66393C17.483 6.7454 17.5007 6.83293 17.5007 6.92134C17.5007 7.00976 17.483 7.09729 17.4487 7.17876C17.4143 7.26023 17.364 7.334 17.3007 7.39572L11.4457 13.1582C11.06 13.5369 10.5411 13.749 10.0007 13.749C9.4602 13.749 8.94133 13.5369 8.55568 13.1582L2.70068 7.39572C2.63718 7.33398 2.5867 7.26013 2.55223 7.17854C2.51776 7.09696 2.5 7.00929 2.5 6.92072C2.5 6.83215 2.51776 6.74448 2.55223 6.66289C2.5867 6.58131 2.63718 6.50746 2.70068 6.44572C2.82925 6.31937 3.00229 6.24858 3.18255 6.24858C3.36281 6.24858 3.53586 6.31937 3.66443 6.44572Z" fill="#A3A3A3"/>
</svg>
