<svg width="20" height="20" viewBox="0 0 20 20" fill="none" xmlns="http://www.w3.org/2000/svg">
<path d="M16.3361 13.5543L10.4798 7.79053C10.352 7.66412 10.1796 7.59322 9.99981 7.59322C9.82007 7.59322 9.64759 7.66412 9.51981 7.79053L3.66356 13.553C3.53499 13.6794 3.36194 13.7502 3.18169 13.7502C3.00143 13.7502 2.82838 13.6794 2.69981 13.553C2.6365 13.4913 2.58619 13.4175 2.55183 13.3361C2.51748 13.2546 2.49978 13.1671 2.49978 13.0787C2.49978 12.9902 2.51748 12.9027 2.55183 12.8212C2.58619 12.7398 2.6365 12.666 2.69981 12.6043L8.55481 6.84178C8.94046 6.46312 9.45934 6.25098 9.99981 6.25098C10.5403 6.25098 11.0592 6.46313 11.4448 6.84178L17.2998 12.6043C17.3633 12.666 17.4138 12.7399 17.4483 12.8215C17.4827 12.903 17.5005 12.9907 17.5005 13.0793C17.5005 13.1679 17.4827 13.2555 17.4483 13.3371C17.4138 13.4187 17.3633 13.4925 17.2998 13.5543C17.1712 13.6806 16.9982 13.7514 16.8179 13.7514C16.6377 13.7514 16.4646 13.6806 16.3361 13.5543Z" fill="#A3A3A3"/>
</svg>
