<svg width="20" height="20" viewBox="0 0 20 20" fill="none" xmlns="http://www.w3.org/2000/svg">
<path d="M18.1632 16.8369L14.453 13.1251C15.5654 11.6755 16.0848 9.85701 15.9057 8.03853C15.7267 6.22005 14.8626 4.53777 13.4888 3.33294C12.115 2.12811 10.3344 1.49096 8.5081 1.55073C6.68181 1.6105 4.94663 2.36272 3.65455 3.65479C2.36247 4.94687 1.61026 6.68205 1.55049 8.50834C1.49072 10.3346 2.12787 12.1153 3.3327 13.4891C4.53752 14.8629 6.21981 15.7269 8.03828 15.906C9.85676 16.085 11.6753 15.5657 13.1249 14.4533L16.8382 18.1673C16.9254 18.2545 17.0289 18.3237 17.1428 18.3709C17.2568 18.4181 17.3789 18.4424 17.5022 18.4424C17.6256 18.4424 17.7477 18.4181 17.8616 18.3709C17.9756 18.3237 18.0791 18.2545 18.1663 18.1673C18.2535 18.0801 18.3227 17.9766 18.3699 17.8626C18.4171 17.7487 18.4414 17.6266 18.4414 17.5033C18.4414 17.3799 18.4171 17.2578 18.3699 17.1439C18.3227 17.0299 18.2535 16.9264 18.1663 16.8392L18.1632 16.8369ZM3.43739 8.75014C3.43739 7.69942 3.74897 6.67231 4.33271 5.79867C4.91646 4.92503 5.74615 4.24412 6.71689 3.84203C7.68762 3.43994 8.75579 3.33473 9.78631 3.53972C10.8168 3.7447 11.7634 4.25067 12.5064 4.99363C13.2494 5.7366 13.7553 6.6832 13.9603 7.71372C14.1653 8.74424 14.0601 9.81241 13.658 10.7831C13.2559 11.7539 12.575 12.5836 11.7014 13.1673C10.8277 13.7511 9.80061 14.0626 8.74989 14.0626C7.34138 14.0612 5.99096 13.501 4.99499 12.505C3.99901 11.5091 3.43884 10.1587 3.43739 8.75014Z" fill="#666666"/>
</svg>
