<svg width="16" height="16" viewBox="0 0 16 16" fill="none" xmlns="http://www.w3.org/2000/svg">
<path d="M14.6431 7.17839L11.8306 9.60527L12.6875 13.2346C12.7347 13.4317 12.7226 13.6383 12.6525 13.8284C12.5824 14.0185 12.4575 14.1836 12.2937 14.3027C12.1298 14.4219 11.9343 14.4899 11.7319 14.498C11.5294 14.5061 11.3291 14.4541 11.1562 14.3484L7.99996 12.4059L4.84184 14.3484C4.66898 14.4534 4.4689 14.505 4.2668 14.4966C4.06469 14.4882 3.8696 14.4201 3.70609 14.301C3.54257 14.182 3.41795 14.0172 3.3479 13.8274C3.27786 13.6376 3.26553 13.4314 3.31246 13.2346L4.17246 9.60527L1.35996 7.17839C1.20702 7.04621 1.09641 6.8719 1.04195 6.67723C0.987486 6.48256 0.99158 6.27616 1.05372 6.08381C1.11586 5.89145 1.23329 5.72167 1.39135 5.59565C1.54941 5.46964 1.7411 5.39299 1.94246 5.37527L5.62996 5.07776L7.05246 1.63526C7.12946 1.44765 7.26051 1.28717 7.42894 1.17423C7.59738 1.06128 7.7956 1.00098 7.9984 1.00098C8.2012 1.00098 8.39942 1.06128 8.56785 1.17423C8.73629 1.28717 8.86734 1.44765 8.94434 1.63526L10.3662 5.07776L14.0537 5.37527C14.2555 5.39233 14.4477 5.46856 14.6064 5.59439C14.765 5.72023 14.883 5.89009 14.9455 6.08267C15.008 6.27526 15.0123 6.48202 14.9579 6.67705C14.9034 6.87207 14.7926 7.04669 14.6393 7.17902L14.6431 7.17839Z" fill="#10C2A0"/>
</svg>
