<svg width="20" height="20" viewBox="0 0 20 20" fill="none" xmlns="http://www.w3.org/2000/svg">
<path d="M18.0415 17.1877C17.9866 17.2827 17.9077 17.3616 17.8127 17.4165C17.7176 17.4713 17.6098 17.5002 17.5001 17.5002H2.50009C2.39044 17.5001 2.28274 17.4711 2.18782 17.4162C2.09289 17.3613 2.01409 17.2824 1.95931 17.1874C1.90453 17.0924 1.8757 16.9847 1.87573 16.875C1.87576 16.7654 1.90464 16.6576 1.95947 16.5627C3.14931 14.5056 4.9829 13.0306 7.12275 12.3314C6.06428 11.7013 5.24192 10.7412 4.78196 9.59845C4.32199 8.45573 4.24985 7.19361 4.57661 6.00592C4.90337 4.81823 5.61097 3.77064 6.59074 3.02402C7.57051 2.2774 8.76827 1.87305 10.0001 1.87305C11.2319 1.87305 12.4297 2.2774 13.4094 3.02402C14.3892 3.77064 15.0968 4.81823 15.4236 6.00592C15.7503 7.19361 15.6782 8.45573 15.2182 9.59845C14.7583 10.7412 13.9359 11.7013 12.8774 12.3314C15.0173 13.0306 16.8509 14.5056 18.0407 16.5627C18.0957 16.6576 18.1247 16.7654 18.1248 16.8751C18.125 16.9848 18.0962 17.0926 18.0415 17.1877Z" fill="#666666"/>
</svg>
