<svg width="18" height="18" viewBox="0 0 18 18" fill="none" xmlns="http://www.w3.org/2000/svg">
<path d="M12.375 15.1876C12.375 15.3368 12.3157 15.4799 12.2102 15.5854C12.1047 15.6909 11.9617 15.7501 11.8125 15.7501H1.68748C1.53829 15.7501 1.39522 15.6909 1.28973 15.5854C1.18424 15.4799 1.12498 15.3368 1.12498 15.1876C1.12498 15.0384 1.18424 14.8954 1.28973 14.7899C1.39522 14.6844 1.53829 14.6251 1.68748 14.6251H11.8125C11.9617 14.6251 12.1047 14.6844 12.2102 14.7899C12.3157 14.8954 12.375 15.0384 12.375 15.1876ZM17.3186 6.10045L16.008 4.42068L15.9996 4.41013C15.5758 3.88808 14.9782 3.536 14.3162 3.41826C13.6541 3.30052 12.9718 3.42498 12.394 3.76888L8.76794 5.9331L4.97529 4.5381C4.84854 4.49084 4.70899 4.49084 4.58224 4.5381L4.0781 4.73006L4.0556 4.7392C3.88313 4.81323 3.73192 4.92924 3.61575 5.07665C3.49958 5.22407 3.42214 5.39821 3.39047 5.58321C3.35881 5.76821 3.37394 5.95819 3.43448 6.13585C3.49502 6.31351 3.59905 6.4732 3.73709 6.60037L5.27341 8.09029L3.85521 8.9481L1.86818 8.27732C1.72755 8.22994 1.57389 8.24005 1.44068 8.30545L1.22974 8.40881C1.06098 8.48422 0.913401 8.60005 0.800054 8.74607C0.686707 8.89208 0.611084 9.06378 0.579874 9.24597C0.548663 9.42816 0.562825 9.61523 0.621109 9.79064C0.679392 9.96606 0.780001 10.1244 0.914038 10.2517L3.44529 12.7316L3.45373 12.7401C3.97222 13.2301 4.6584 13.5035 5.37185 13.5044C5.8727 13.5035 6.36434 13.3696 6.79638 13.1162L17.1611 6.92873C17.2295 6.88786 17.2885 6.83292 17.334 6.76756C17.3796 6.7022 17.4108 6.62791 17.4255 6.5496C17.4401 6.47129 17.438 6.39075 17.4193 6.31332C17.4005 6.23589 17.3655 6.16333 17.3165 6.10045H17.3186Z" fill="#666666"/>
</svg>
