<svg width="18" height="18" viewBox="0 0 18 18" fill="none" xmlns="http://www.w3.org/2000/svg">
<path d="M18 15.1873C18 15.3365 17.9407 15.4796 17.8352 15.5851C17.7298 15.6906 17.5867 15.7498 17.4375 15.7498H7.3125C7.16332 15.7498 7.02024 15.6906 6.91475 15.5851C6.80926 15.4796 6.75 15.3365 6.75 15.1873C6.75 15.0382 6.80926 14.8951 6.91475 14.7896C7.02024 14.6841 7.16332 14.6248 7.3125 14.6248H17.4375C17.5867 14.6248 17.7298 14.6841 17.8352 14.7896C17.9407 14.8951 18 15.0382 18 15.1873ZM16.3125 13.4998C16.4617 13.4998 16.6048 13.4406 16.7102 13.3351C16.8157 13.2296 16.875 13.0865 16.875 12.9373V10.4286C16.8735 9.81439 16.6717 9.21744 16.3001 8.72837C15.9286 8.23929 15.4076 7.88482 14.8163 7.71876L10.5384 6.52344L8.95641 2.75258C8.92542 2.67857 8.87896 2.61205 8.82014 2.55748C8.76132 2.5029 8.69151 2.46155 8.61539 2.43618L8.23078 2.30821C8.06172 2.25185 7.88169 2.23646 7.70551 2.26331C7.52934 2.29016 7.36206 2.35847 7.21746 2.46263C7.07286 2.56679 6.95508 2.70381 6.8738 2.86241C6.79253 3.02101 6.7501 3.19664 6.75 3.37485V5.44133L4.64977 4.84297L3.90375 2.7779C3.87483 2.69797 3.82817 2.62563 3.76728 2.56632C3.70639 2.50702 3.63285 2.46228 3.55219 2.43547L3.16758 2.30751C2.9985 2.25127 2.81848 2.23599 2.64235 2.26294C2.46621 2.28989 2.299 2.35829 2.15447 2.46252C2.00995 2.56674 1.89225 2.7038 1.81106 2.86242C1.72987 3.02103 1.68752 3.19666 1.6875 3.37485V7.29266C1.68885 7.90602 1.89007 8.50222 2.26068 8.99095C2.63128 9.47968 3.15108 9.83431 3.74133 10.0011L16.1606 13.4788C16.21 13.4927 16.2611 13.4998 16.3125 13.4998Z" fill="#666666"/>
</svg>
