<svg width="18" height="18" viewBox="0 0 18 18" fill="none" xmlns="http://www.w3.org/2000/svg">
<rect width="18" height="18" rx="4" transform="matrix(-4.37114e-08 -1 -1 4.37114e-08 18 18)" fill="#F5F7F8"/>
<path d="M5.80105 14.7027L10.9884 9.43212C11.1022 9.31713 11.166 9.16189 11.166 9.00012C11.166 8.83836 11.1022 8.68312 10.9884 8.56812L5.80217 3.2975C5.68846 3.18179 5.62475 3.02604 5.62475 2.86381C5.62475 2.70158 5.68846 2.54584 5.80217 2.43012C5.85772 2.37314 5.92411 2.32786 5.99744 2.29694C6.07076 2.26602 6.14953 2.25009 6.22911 2.25009C6.30869 2.25009 6.38746 2.26602 6.46078 2.29694C6.5341 2.32786 6.6005 2.37314 6.65605 2.43012L11.8423 7.69962C12.1831 8.04671 12.374 8.5137 12.374 9.00012C12.374 9.48655 12.1831 9.95354 11.8423 10.3006L6.65605 15.5701C6.60048 15.6273 6.53402 15.6727 6.46059 15.7037C6.38716 15.7347 6.30826 15.7507 6.22855 15.7507C6.14884 15.7507 6.06993 15.7347 5.9965 15.7037C5.92308 15.6727 5.85661 15.6273 5.80105 15.5701C5.68734 15.4544 5.62362 15.2987 5.62362 15.1364C5.62362 14.9742 5.68734 14.8185 5.80105 14.7027Z" fill="#A3A3A3"/>
</svg>
