<svg width="18" height="18" viewBox="0 0 18 18" fill="none" xmlns="http://www.w3.org/2000/svg">
<rect width="18" height="18" rx="4" transform="matrix(-4.37114e-08 1 1 4.37114e-08 0 0)" fill="#F5F7F8"/>
<path d="M12.1985 3.29701L7.01109 8.56763C6.89732 8.68263 6.83351 8.83787 6.83351 8.99963C6.83351 9.1614 6.89732 9.31663 7.01109 9.43163L12.1973 14.7023C12.311 14.818 12.3748 14.9737 12.3748 15.1359C12.3748 15.2982 12.311 15.4539 12.1973 15.5696C12.1418 15.6266 12.0754 15.6719 12.0021 15.7028C11.9287 15.7337 11.85 15.7497 11.7704 15.7497C11.6908 15.7497 11.6121 15.7337 11.5387 15.7028C11.4654 15.6719 11.399 15.6266 11.3435 15.5696L6.15721 10.3001C5.81642 9.95304 5.62549 9.48606 5.62549 8.99963C5.62549 8.51321 5.81642 8.04622 6.15721 7.69913L11.3435 2.42963C11.399 2.37248 11.4655 2.32705 11.5389 2.29603C11.6123 2.26501 11.6913 2.24902 11.771 2.24902C11.8507 2.24902 11.9296 2.26501 12.003 2.29603C12.0764 2.32705 12.1429 2.37248 12.1985 2.42963C12.3122 2.54534 12.3759 2.70109 12.3759 2.86332C12.3759 3.02555 12.3122 3.18129 12.1985 3.29701Z" fill="#A3A3A3"/>
</svg>
