<svg width="20" height="20" viewBox="0 0 20 20" fill="none" xmlns="http://www.w3.org/2000/svg">
<path d="M3.66394 6.44572L9.52019 12.2095C9.64796 12.3359 9.82045 12.4068 10.0002 12.4068C10.1799 12.4068 10.3524 12.3359 10.4802 12.2095L16.3364 6.44697C16.465 6.32062 16.6381 6.24983 16.8183 6.24983C16.9986 6.24983 17.1716 6.32062 17.3002 6.44697C17.3635 6.50869 17.4138 6.58246 17.4482 6.66393C17.4825 6.7454 17.5002 6.83292 17.5002 6.92134C17.5002 7.00976 17.4825 7.09728 17.4482 7.17875C17.4138 7.26023 17.3635 7.334 17.3002 7.39572L11.4452 13.1582C11.0595 13.5369 10.5407 13.749 10.0002 13.749C9.45972 13.749 8.94084 13.5369 8.55519 13.1582L2.70019 7.39572C2.63669 7.33398 2.58621 7.26013 2.55174 7.17854C2.51727 7.09696 2.49951 7.00929 2.49951 6.92072C2.49951 6.83215 2.51727 6.74448 2.55174 6.66289C2.58621 6.58131 2.63669 6.50746 2.70019 6.44572C2.82876 6.31937 3.0018 6.24858 3.18206 6.24858C3.36232 6.24858 3.53537 6.31937 3.66394 6.44572Z" fill="#A3A3A3"/>
</svg>
