<svg width="24" height="24" viewBox="0 0 24 24" fill="none" xmlns="http://www.w3.org/2000/svg">
<path d="M21.1207 15.5559C20.307 14.1562 19.8748 12.1472 19.8748 9.75C19.8748 7.66142 19.0451 5.65838 17.5682 4.18153C16.0914 2.70469 14.0884 1.875 11.9998 1.875C9.9112 1.875 7.90816 2.70469 6.43132 4.18153C4.95447 5.65838 4.12478 7.66142 4.12478 9.75C4.12478 12.1481 3.69447 14.1562 2.88072 15.5559C2.71467 15.8414 2.62665 16.1656 2.6255 16.4958C2.62435 16.8261 2.7101 17.1509 2.87416 17.4375C3.03717 17.7243 3.27378 17.9624 3.55955 18.1272C3.84532 18.292 4.1699 18.3775 4.49978 18.375H7.89166C7.98468 19.4003 8.45773 20.3537 9.21787 21.048C9.97801 21.7423 10.9703 22.1273 11.9998 22.1273C13.0293 22.1273 14.0216 21.7423 14.7817 21.048C15.5418 20.3537 16.0149 19.4003 16.1079 18.375H19.4998C19.8292 18.377 20.1532 18.2913 20.4384 18.1265C20.7236 17.9617 20.9598 17.7239 21.1226 17.4375C21.2874 17.1513 21.3739 16.8267 21.3736 16.4965C21.3733 16.1662 21.2861 15.8418 21.1207 15.5559ZM11.9998 19.875C11.5675 19.8751 11.1485 19.7258 10.8137 19.4525C10.4789 19.1791 10.2487 18.7985 10.1623 18.375H13.8373C13.7508 18.7985 13.5207 19.1791 13.1859 19.4525C12.851 19.7258 12.432 19.8751 11.9998 19.875ZM5.12416 16.125C5.95384 14.4375 6.37478 12.2944 6.37478 9.75C6.37478 8.25816 6.96741 6.82742 8.02231 5.77252C9.0772 4.71763 10.5079 4.125 11.9998 4.125C13.4916 4.125 14.9224 4.71763 15.9773 5.77252C17.0321 6.82742 17.6248 8.25816 17.6248 9.75C17.6248 12.2934 18.0448 14.4375 18.8745 16.125H5.12416Z" fill="#404040"/>
</svg>
