<svg width="20" height="20" viewBox="0 0 20 20" fill="none" xmlns="http://www.w3.org/2000/svg">
<path d="M18.0413 17.1875C17.9864 17.2825 17.9075 17.3614 17.8124 17.4163C17.7174 17.4711 17.6096 17.5 17.4998 17.5H2.49985C2.39019 17.4999 2.28249 17.4709 2.18757 17.416C2.09265 17.3611 2.01384 17.2822 1.95906 17.1872C1.90428 17.0922 1.87546 16.9845 1.87549 16.8748C1.87552 16.7652 1.90439 16.6575 1.95922 16.5625C3.14907 14.5055 4.98266 13.0305 7.1225 12.3312C6.06404 11.7011 5.24168 10.741 4.78171 9.59827C4.32174 8.45554 4.2496 7.19343 4.57636 6.00574C4.90313 4.81805 5.61072 3.77045 6.59049 3.02384C7.57026 2.27722 8.76803 1.87286 9.99985 1.87286C11.2317 1.87286 12.4294 2.27722 13.4092 3.02384C14.389 3.77045 15.0966 4.81805 15.4233 6.00574C15.7501 7.19343 15.678 8.45554 15.218 9.59827C14.758 10.741 13.9357 11.7011 12.8772 12.3312C15.017 13.0305 16.8506 14.5055 18.0405 16.5625C18.0954 16.6574 18.1245 16.7652 18.1246 16.8749C18.1247 16.9846 18.096 17.0924 18.0413 17.1875Z" fill="#666666"/>
</svg>
