<svg width="32" height="32" viewBox="0 0 32 32" fill="none" xmlns="http://www.w3.org/2000/svg">
<g filter="url(#filter0_d_43_655)">
<rect width="24" height="24" rx="4" transform="matrix(1 0 0 -1 4 28)" fill="#F5F7F8"/>
<path d="M8.39633 11.7351L15.4238 18.6516C15.5772 18.8032 15.7841 18.8883 15.9998 18.8883C16.2155 18.8883 16.4225 18.8032 16.5758 18.6516L23.6033 11.7366C23.7576 11.5849 23.9653 11.5 24.1816 11.5C24.3979 11.5 24.6056 11.5849 24.7598 11.7366C24.8358 11.8106 24.8962 11.8991 24.9374 11.9969C24.9786 12.0947 24.9999 12.1997 24.9999 12.3058C24.9999 12.4119 24.9786 12.5169 24.9374 12.6147C24.8962 12.7125 24.8358 12.801 24.7598 12.8751L17.7338 19.7901C17.2711 20.2444 16.6484 20.499 15.9998 20.499C15.3513 20.499 14.7286 20.2444 14.2658 19.7901L7.23984 12.8751C7.16363 12.801 7.10306 12.7123 7.0617 12.6144C7.02033 12.5165 6.99902 12.4113 6.99902 12.3051C6.99902 12.1988 7.02033 12.0936 7.0617 11.9957C7.10306 11.8978 7.16363 11.8091 7.23984 11.7351C7.39412 11.5834 7.60178 11.4985 7.81808 11.4985C8.03439 11.4985 8.24205 11.5834 8.39633 11.7351Z" fill="#A3A3A3"/>
</g>
<defs>
<filter id="filter0_d_43_655" x="0" y="0" width="32" height="32" filterUnits="userSpaceOnUse" color-interpolation-filters="sRGB">
<feFlood flood-opacity="0" result="BackgroundImageFix"/>
<feColorMatrix in="SourceAlpha" type="matrix" values="0 0 0 0 0 0 0 0 0 0 0 0 0 0 0 0 0 0 127 0" result="hardAlpha"/>
<feOffset/>
<feGaussianBlur stdDeviation="2"/>
<feComposite in2="hardAlpha" operator="out"/>
<feColorMatrix type="matrix" values="0 0 0 0 0 0 0 0 0 0 0 0 0 0 0 0 0 0 0.25 0"/>
<feBlend mode="normal" in2="BackgroundImageFix" result="effect1_dropShadow_43_655"/>
<feBlend mode="normal" in="SourceGraphic" in2="effect1_dropShadow_43_655" result="shape"/>
</filter>
</defs>
</svg>
