<svg width="32" height="32" viewBox="0 0 32 32" fill="none" xmlns="http://www.w3.org/2000/svg">
<path d="M28 6V12C28 12.2652 27.8946 12.5196 27.7071 12.7071C27.5196 12.8946 27.2652 13 27 13H21C20.7348 13 20.4804 12.8946 20.2929 12.7071C20.1054 12.5196 20 12.2652 20 12C20 11.7348 20.1054 11.4804 20.2929 11.2929C20.4804 11.1054 20.7348 11 21 11H24.5863L22.7575 9.17125C20.899 7.30426 18.3756 6.25094 15.7413 6.2425H15.685C13.0727 6.23638 10.563 7.25885 8.69875 9.08875C8.50778 9.26703 8.25462 9.36349 7.99343 9.3575C7.73224 9.35151 7.48377 9.24354 7.30118 9.05669C7.11858 8.86985 7.01635 8.61896 7.01636 8.35771C7.01638 8.09645 7.11863 7.84558 7.30125 7.65875C9.56066 5.4505 12.5998 4.22235 15.759 4.24084C18.9183 4.25932 21.9428 5.52295 24.1763 7.7575L26 9.58625V6C26 5.73478 26.1054 5.48043 26.2929 5.29289C26.4804 5.10536 26.7348 5 27 5C27.2652 5 27.5196 5.10536 27.7071 5.29289C27.8946 5.48043 28 5.73478 28 6ZM23.3013 22.9112C21.4185 24.7503 18.8867 25.773 16.2549 25.7576C13.6231 25.7421 11.1035 24.6898 9.2425 22.8288L7.41375 21H11C11.2652 21 11.5196 20.8946 11.7071 20.7071C11.8946 20.5196 12 20.2652 12 20C12 19.7348 11.8946 19.4804 11.7071 19.2929C11.5196 19.1054 11.2652 19 11 19H5C4.73478 19 4.48043 19.1054 4.29289 19.2929C4.10536 19.4804 4 19.7348 4 20V26C4 26.2652 4.10536 26.5196 4.29289 26.7071C4.48043 26.8946 4.73478 27 5 27C5.26522 27 5.51957 26.8946 5.70711 26.7071C5.89464 26.5196 6 26.2652 6 26V22.4137L7.82875 24.2425C10.059 26.484 13.088 27.7483 16.25 27.7575H16.3162C19.4514 27.7656 22.4634 26.5382 24.7 24.3412C24.8826 24.1544 24.9849 23.9035 24.9849 23.6423C24.9849 23.381 24.8827 23.1302 24.7001 22.9433C24.5175 22.7565 24.269 22.6485 24.0078 22.6425C23.7466 22.6365 23.4935 22.733 23.3025 22.9112H23.3013Z" fill="#666666"/>
</svg>
