<svg width="24" height="24" viewBox="0 0 24 24" fill="none" xmlns="http://www.w3.org/2000/svg">
<path d="M22.8752 5.25002V9.75001C22.8752 10.0484 22.7567 10.3345 22.5457 10.5455C22.3347 10.7565 22.0486 10.875 21.7502 10.875H17.2502C16.9518 10.875 16.6657 10.7565 16.4547 10.5455C16.2437 10.3345 16.1252 10.0484 16.1252 9.75001C16.1252 9.45165 16.2437 9.1655 16.4547 8.95452C16.6657 8.74354 16.9518 8.62502 17.2502 8.62502H18.8533L17.0721 6.99564C17.0599 6.98439 17.0477 6.97314 17.0365 6.96095C16.2105 6.13554 15.1944 5.52576 14.0775 5.18527C12.9606 4.84478 11.7771 4.78402 10.6312 5.00833C9.48524 5.23264 8.412 5.73514 7.50589 6.47163C6.59978 7.20812 5.88856 8.15602 5.43482 9.23192C4.98107 10.3078 4.79871 11.4788 4.90377 12.6417C5.00883 13.8046 5.39809 14.9239 6.03731 15.9011C6.67653 16.8782 7.54612 17.6833 8.56955 18.2455C9.59298 18.8077 10.7389 19.1097 11.9065 19.125H12.0002C13.8189 19.1294 15.5695 18.4338 16.8893 17.1825C17.1062 16.9775 17.3957 16.8671 17.6941 16.8755C17.9924 16.884 18.2752 17.0106 18.4802 17.2275C18.6852 17.4445 18.7956 17.7339 18.7872 18.0323C18.7788 18.3307 18.6522 18.6134 18.4352 18.8185C16.6979 20.4651 14.3939 21.3805 12.0002 21.375H11.8718C10.3371 21.3534 8.83127 20.9553 7.48642 20.2157C6.14156 19.4762 4.99884 18.4177 4.15861 17.1334C3.31837 15.849 2.80631 14.378 2.66739 12.8495C2.52847 11.321 2.76694 9.78178 3.36186 8.36698C3.95679 6.95218 4.88996 5.70508 6.07945 4.73517C7.26894 3.76527 8.67837 3.10224 10.184 2.80429C11.6896 2.50635 13.2453 2.5826 14.7145 3.02636C16.1838 3.47012 17.5216 4.26781 18.6105 5.34939L20.6252 7.19252V5.25002C20.6252 4.95165 20.7437 4.6655 20.9547 4.45452C21.1657 4.24354 21.4518 4.12502 21.7502 4.12502C22.0486 4.12502 22.3347 4.24354 22.5457 4.45452C22.7567 4.6655 22.8752 4.95165 22.8752 5.25002Z" fill="#A3A3A3"/>
</svg>
