<svg width="107" height="24" viewBox="0 0 107 24" fill="none" xmlns="http://www.w3.org/2000/svg">
<g clip-path="url(#clip0_43_636)">
<path d="M3.84211 5.82L0 16.19H2.75126L5.26119 9.01L7.70354 16.19H10.4548L6.68991 5.82H3.84211Z" fill="#1DB898"/>
<path d="M14.6736 5.82H12.0479V16.19H14.6736V5.82Z" fill="#1DB898"/>
<path d="M24.5395 10.58C25.167 9.41 24.9063 7.78 24.4044 7.12C23.912 6.46 23.0915 5.81 21.3249 5.81H17.5117V16.18H20.1375V12.17L22.7633 16.18H25.8234L22.715 11.93C22.715 11.93 23.912 11.75 24.5395 10.58ZM21.6145 10.22C21.016 10.58 20.1375 10.48 20.1375 10.48V7.89C20.1375 7.89 20.8518 7.81 21.4407 8.04C21.8848 8.21 22.184 8.58 22.184 9.13C22.184 9.68 22.0006 10 21.6145 10.23V10.22Z" fill="#1DB898"/>
<path d="M33.0827 9.52C32.5614 9.34 32.3104 9.04 32.3491 8.62C32.3877 8.21 32.7352 7.85 33.2082 7.78C34.1832 7.63 35.2355 8.41 35.2355 8.41L36.2201 6.42C35.4961 5.97 34.4149 5.46 32.8703 5.55C30.8721 5.67 29.7329 7.09 29.6461 8.7C29.5785 10.03 30.1577 11.16 31.905 11.79C32.5325 12.01 33.4689 12.19 33.7874 12.68C34.1929 13.3 33.7778 14.39 32.3104 14.15C31.3065 13.98 30.3315 13.14 30.3315 13.14L29.231 15.28C29.231 15.28 30.93 16.65 33.2758 16.45C36.6835 16.16 37.0503 12.89 36.3746 11.55C35.7085 10.22 34.106 9.87 33.0731 9.51L33.0827 9.52Z" fill="#1DB898"/>
<path d="M41.5005 12.11H44.3096V9.84H41.5198V8.02H44.4738V5.82H38.9326V16.19H44.6186V13.92H41.5005V12.11Z" fill="#1DB898"/>
<path d="M52.0035 5.48C48.9722 5.48 46.5396 7.84 46.5396 10.97C46.5396 14.1 48.7502 16.53 52.0035 16.53C55.2567 16.53 57.4674 14.24 57.4674 10.97C57.4674 7.7 55.0347 5.48 52.0035 5.48ZM52.0035 13.94C50.4203 13.94 49.1846 12.62 49.1846 10.95C49.1846 9.28 50.5168 8.07 52.0035 8.07C53.4901 8.07 54.8223 9.33 54.8223 10.95C54.8223 12.57 53.5963 13.94 52.0035 13.94Z" fill="#1DB898"/>
<path d="M66.0111 11.94C66.0111 13.77 65.0071 14.11 64.3314 14.11C63.6556 14.11 62.4972 13.86 62.4972 11.89V5.82H59.9004V11.97C59.9004 15.17 61.6477 16.47 64.37 16.47C67.0923 16.47 68.6272 14.92 68.6272 12.1V5.82H66.0111V11.94Z" fill="#1DB898"/>
<path d="M74.0427 13.94V5.82H71.4556V16.19H77.0643V15.03V13.94H74.0427Z" fill="#1DB898"/>
<path d="M95.9948 7.76L93.3593 0.52H89.0635L83.2617 16.17H87.4128L91.2066 5.34L92.7994 10.02C93.6489 9.02 94.7398 8.24 95.9851 7.76H95.9948Z" fill="#1DB898"/>
<path d="M94.8174 15.2704C94.8174 15.5804 94.8463 15.8804 94.9043 16.1704H99.0553L97.3176 11.3804C95.8793 12.0304 94.8174 13.5004 94.8174 15.2604V15.2704Z" fill="#1DB898"/>
<path d="M98.9583 7.22C97.9157 7.22 96.9117 7.41 95.9947 7.77L97.3172 11.39C97.8288 11.16 98.3887 11.03 98.9583 11.03C101.15 11.03 103.1 12.88 103.1 15.27C103.1 17.66 101.294 19.67 98.9583 19.67C96.9117 19.67 95.2803 18.19 94.8941 16.17L92.809 10.02C91.6216 11.42 90.9072 13.24 90.9072 15.3C90.9072 20.1 94.1508 23.48 98.9486 23.48C103.746 23.48 106.99 20.1 106.99 15.3C106.99 10.5 103.409 7.22 98.9486 7.22H98.9583Z" fill="#B4BBB0"/>
<path d="M94.817 15.27C94.817 13.51 95.8789 12.04 97.3173 11.39L95.9948 7.77C94.7494 8.25 93.6586 9.03 92.8091 10.03L94.8943 16.18C94.8363 15.89 94.8074 15.59 94.8074 15.28L94.817 15.27Z" fill="#028B7F"/>
</g>
<defs>
<clipPath id="clip0_43_636">
<rect width="107" height="22.96" fill="white" transform="translate(0 0.52)"/>
</clipPath>
</defs>
</svg>
