<svg width="21" height="20" viewBox="0 0 21 20" fill="none" xmlns="http://www.w3.org/2000/svg">
<path d="M18.6844 10.7719C18.4088 10.5607 18.0878 10.4166 17.7469 10.3508C18.9523 8.97969 19.5625 7.60703 19.5625 6.25C19.5625 4.01016 17.7586 2.1875 15.5422 2.1875C14.4748 2.18238 13.4487 2.5994 12.6875 3.34766C11.9263 2.5994 10.9002 2.18238 9.83281 2.1875C7.61641 2.1875 5.8125 4.01016 5.8125 6.25C5.8125 7.04297 6.025 7.83594 6.45469 8.64844C6.11171 8.78998 5.80023 8.99817 5.53828 9.26094L3.85938 10.9375H2.0625C1.6481 10.9375 1.25067 11.1021 0.957646 11.3951C0.66462 11.6882 0.5 12.0856 0.5 12.5L0.5 15.625C0.5 16.0394 0.66462 16.4368 0.957646 16.7299C1.25067 17.0229 1.6481 17.1875 2.0625 17.1875H9.875C9.95165 17.1875 10.028 17.1781 10.1023 17.1594L15.1023 15.9094C15.1502 15.8976 15.1969 15.882 15.2422 15.8625L18.275 14.5703C18.293 14.5633 18.3102 14.5555 18.3273 14.5469C18.6665 14.3772 18.957 14.124 19.1713 13.8111C19.3856 13.4982 19.5168 13.1359 19.5525 12.7584C19.5882 12.3808 19.5273 12.0003 19.3754 11.6528C19.2235 11.3053 18.9857 11.0021 18.6844 10.7719ZM9.83281 4.0625C10.2552 4.05598 10.67 4.17561 11.024 4.40607C11.378 4.63653 11.6553 4.96736 11.8203 5.35625C11.8909 5.5282 12.0111 5.67527 12.1655 5.77877C12.3199 5.88227 12.5016 5.93753 12.6875 5.93753C12.8734 5.93753 13.0551 5.88227 13.2095 5.77877C13.3639 5.67527 13.4841 5.5282 13.5547 5.35625C13.7197 4.96736 13.997 4.63653 14.351 4.40607C14.705 4.17561 15.1198 4.05598 15.5422 4.0625C16.7047 4.0625 17.6875 5.06406 17.6875 6.25C17.6875 7.66094 16.5156 9.28438 14.2984 10.9523L13.9375 11.0359C13.9375 11.0031 13.9375 10.9703 13.9375 10.9375C13.9375 10.2745 13.6741 9.63857 13.2053 9.16973C12.7364 8.70089 12.1005 8.4375 11.4375 8.4375H8.52422C7.95469 7.6375 7.6875 6.93516 7.6875 6.25C7.6875 5.06406 8.67031 4.0625 9.83281 4.0625ZM2.375 12.8125H3.3125V15.3125H2.375V12.8125ZM17.5062 12.8602L14.5758 14.1102L9.75937 15.3125H5.1875V12.2656L6.86406 10.5891C6.95072 10.5015 7.0539 10.4319 7.16762 10.3844C7.28133 10.337 7.40334 10.3125 7.52656 10.3125H11.4375C11.6033 10.3125 11.7622 10.3783 11.8794 10.4956C11.9967 10.6128 12.0625 10.7717 12.0625 10.9375C12.0625 11.1033 11.9967 11.2622 11.8794 11.3794C11.7622 11.4967 11.6033 11.5625 11.4375 11.5625H9.25C9.00136 11.5625 8.7629 11.6613 8.58709 11.8371C8.41127 12.0129 8.3125 12.2514 8.3125 12.5C8.3125 12.7486 8.41127 12.9871 8.58709 13.1629C8.7629 13.3387 9.00136 13.4375 9.25 13.4375H11.75C11.8207 13.4375 11.8912 13.4297 11.9602 13.4141L17.1945 12.2102L17.2313 12.2008C17.2846 12.1863 17.3406 12.1842 17.3949 12.1948C17.4492 12.2055 17.5003 12.2284 17.5442 12.262C17.5882 12.2955 17.6239 12.3387 17.6484 12.3883C17.673 12.4378 17.6858 12.4924 17.6859 12.5477C17.6863 12.611 17.6699 12.6733 17.6383 12.7282C17.6068 12.7831 17.5612 12.8286 17.5062 12.8602Z" fill="#A3A3A3"/>
</svg>
