<svg width="44" height="45" viewBox="0 0 44 45" fill="none" xmlns="http://www.w3.org/2000/svg">
<path d="M39.1866 14.4119C40.2259 14.4119 41.2226 14.8379 41.9575 15.5962C42.6924 16.3544 43.1053 17.3829 43.1053 18.4552V26.5417C43.1053 27.614 42.6924 28.6425 41.9575 29.4007C41.2226 30.159 40.2259 30.585 39.1866 30.585C37.9987 30.585 37.0153 31.4775 36.7253 32.6294C35.9432 35.7364 34.2776 38.5497 31.9213 40.6936C29.5657 42.837 26.6529 44.19 23.5683 44.6023C22.4617 44.7503 21.5526 43.8313 21.5526 42.7148C21.5526 41.5983 22.4648 40.7113 23.5638 40.5143C25.9351 40.0895 28.1406 38.92 29.8654 37.1404C32.07 34.8656 33.3086 31.7804 33.3086 28.5633V16.4336C33.3086 13.2165 32.07 10.1313 29.8654 7.85651C27.6607 5.58174 24.6705 4.30378 21.5526 4.30378C18.4348 4.30378 15.4446 5.58174 13.2399 7.85651C11.0352 10.1313 9.79665 13.2165 9.79665 16.4336V24.707C9.79665 27.9533 7.16498 30.585 3.91866 30.585C2.87937 30.585 1.88264 30.159 1.14775 29.4007C0.412858 28.6425 0 27.614 0 26.5417V18.4552C0 17.3829 0.412858 16.3544 1.14775 15.5962C1.88264 14.8379 2.87937 14.4119 3.91866 14.4119C5.10662 14.4119 6.09016 13.5195 6.38042 12.3676C7.16316 9.26121 8.82891 6.44854 11.185 4.30515C14.0485 1.70008 17.735 0.262695 21.5526 0.262695C25.3703 0.262695 29.0567 1.70008 31.9203 4.30515C34.2763 6.44854 35.9421 9.26121 36.7248 12.3676C37.0151 13.5195 37.9986 14.4119 39.1866 14.4119ZM14.9409 31.1014C13.9642 30.632 13.6917 29.4131 14.2531 28.4862C14.8383 27.5201 16.1025 27.2469 17.1448 27.682C18.5392 28.2643 20.0356 28.566 21.5526 28.5633C23.0697 28.566 24.566 28.2643 25.9605 27.682C27.0028 27.2469 28.267 27.5201 28.8522 28.4862C29.4136 29.4131 29.141 30.632 28.1644 31.1014C26.1009 32.0932 23.8446 32.6105 21.5526 32.6066C19.2607 32.6105 17.0043 32.0932 14.9409 31.1014Z" fill="url(#paint0_linear_43_1082)"/>
<defs>
<linearGradient id="paint0_linear_43_1082" x1="0" y1="0.262695" x2="44.061" y2="38.2922" gradientUnits="userSpaceOnUse">
<stop stop-color="#1987FA"/>
<stop offset="1" stop-color="#10C2A0"/>
</linearGradient>
</defs>
</svg>
