<svg width="25" height="25" viewBox="0 0 25 25" fill="none" xmlns="http://www.w3.org/2000/svg">
<path d="M16.2921 11.689L9.92464 5.33277C9.82006 5.22733 9.69563 5.14364 9.55854 5.08652C9.42145 5.02941 9.2744 5 9.12589 5C8.97738 5 8.83033 5.02941 8.69324 5.08652C8.55615 5.14364 8.43172 5.22733 8.32714 5.33277C8.11761 5.54356 8 5.82869 8 6.1259C8 6.42311 8.11761 6.70824 8.32714 6.91902L13.8959 12.544L8.32714 18.1128C8.11761 18.3236 8 18.6087 8 18.9059C8 19.2031 8.11761 19.4882 8.32714 19.699C8.43133 19.8053 8.55558 19.8899 8.69269 19.9478C8.8298 20.0058 8.97705 20.0359 9.12589 20.0365C9.27474 20.0359 9.42198 20.0058 9.55909 19.9478C9.6962 19.8899 9.82045 19.8053 9.92464 19.699L16.2921 13.3428C16.4063 13.2374 16.4975 13.1096 16.5598 12.9673C16.6221 12.8249 16.6543 12.6713 16.6543 12.5159C16.6543 12.3605 16.6221 12.2069 16.5598 12.0645C16.4975 11.9222 16.4063 11.7944 16.2921 11.689Z" fill="black"/>
</svg>
