<svg width="16" height="16" viewBox="0 0 16 16" fill="none" xmlns="http://www.w3.org/2000/svg">
<path d="M8.17062 14.8356L10.4637 10.25L13 10.25C13.5967 10.25 14.169 10.0129 14.591 9.59099C15.0129 9.16903 15.25 8.59674 15.25 8C15.25 7.40326 15.0129 6.83097 14.591 6.40901C14.169 5.98705 13.5967 5.75 13 5.75L10.4637 5.75L8.17062 1.16437C8.10832 1.03987 8.01259 0.935156 7.89414 0.861972C7.7757 0.788787 7.63923 0.750016 7.5 0.75L5.5 0.75C5.38904 0.749978 5.27946 0.774576 5.17916 0.822021C5.07885 0.869466 4.99033 0.938576 4.91996 1.02437C4.84959 1.11016 4.79914 1.2105 4.77223 1.31814C4.74533 1.42579 4.74264 1.53806 4.76437 1.64687L5.585 5.75L4.8125 5.75L4.03062 4.96937C3.96092 4.89975 3.87818 4.84454 3.78714 4.8069C3.69609 4.76926 3.59852 4.74992 3.5 4.75L1.5 4.75C1.37742 4.75 1.2567 4.78005 1.14843 4.83752C1.04015 4.89498 0.947609 4.97811 0.878903 5.07963C0.810197 5.18115 0.767422 5.29796 0.75432 5.41984C0.741218 5.54172 0.758189 5.66495 0.803749 5.77875L1.6925 8L0.803749 10.2212C0.768116 10.3099 0.749867 10.4045 0.749999 10.5C0.749999 10.6989 0.829016 10.8897 0.969668 11.0303C1.11032 11.171 1.30109 11.25 1.5 11.25L3.5 11.25C3.59852 11.2501 3.69609 11.2307 3.78714 11.1931C3.87818 11.1555 3.96092 11.1003 4.03062 11.0306L4.8125 10.25L5.585 10.25L4.76437 14.3531C4.74264 14.4619 4.74533 14.5742 4.77223 14.6819C4.79914 14.7895 4.84959 14.8898 4.91996 14.9756C4.99033 15.0614 5.07885 15.1305 5.17916 15.178C5.27946 15.2254 5.38904 15.25 5.5 15.25L7.5 15.25C7.63923 15.25 7.7757 15.2112 7.89414 15.138C8.01259 15.0648 8.10832 14.9601 8.17062 14.8356ZM6.415 13.75L7.23562 9.64688C7.25735 9.53807 7.25467 9.42579 7.22776 9.31814C7.20086 9.2105 7.1504 9.11016 7.08004 9.02437C7.00967 8.93858 6.92114 8.86947 6.82084 8.82202C6.72054 8.77458 6.61096 8.74998 6.5 8.75L4.5 8.75C4.40148 8.74992 4.30391 8.76926 4.21286 8.8069C4.12181 8.84454 4.03908 8.89975 3.96937 8.96937L3.1875 9.75L2.60562 9.75L3.19437 8.27875C3.26601 8.09982 3.26601 7.90018 3.19437 7.72125L2.6075 6.25L3.1875 6.25L3.9675 7.03062C4.03742 7.10047 4.12047 7.15581 4.21185 7.19346C4.30324 7.23111 4.40116 7.25032 4.5 7.25L6.5 7.25C6.61096 7.25002 6.72054 7.22542 6.82084 7.17798C6.92114 7.13053 7.00967 7.06142 7.08004 6.97563C7.1504 6.88984 7.20086 6.7895 7.22776 6.68186C7.25467 6.57421 7.25735 6.46193 7.23562 6.35312L6.415 2.25L7.03625 2.25L9.32937 6.83562C9.39168 6.96013 9.48741 7.06484 9.60585 7.13803C9.7243 7.21121 9.86077 7.24998 10 7.25L13 7.25C13.1989 7.25 13.3897 7.32902 13.5303 7.46967C13.671 7.61032 13.75 7.80109 13.75 8C13.75 8.19891 13.671 8.38968 13.5303 8.53033C13.3897 8.67098 13.1989 8.75 13 8.75L10 8.75C9.86077 8.75002 9.7243 8.78879 9.60585 8.86197C9.48741 8.93516 9.39168 9.03987 9.32937 9.16438L7.03625 13.75L6.415 13.75Z" fill="white"/>
<path d="M6.415 13.75L7.23562 9.64688C7.25735 9.53807 7.25467 9.42579 7.22776 9.31814C7.20086 9.2105 7.1504 9.11016 7.08004 9.02437C7.00967 8.93858 6.92114 8.86947 6.82084 8.82202C6.72054 8.77458 6.61096 8.74998 6.5 8.75L4.5 8.75C4.40148 8.74992 4.30391 8.76926 4.21286 8.8069C4.12181 8.84454 4.03908 8.89975 3.96937 8.96937L3.1875 9.75L2.60562 9.75L3.19437 8.27875C3.26601 8.09982 3.26601 7.90018 3.19437 7.72125L2.6075 6.25L3.1875 6.25L3.9675 7.03062C4.03742 7.10047 4.12047 7.15581 4.21185 7.19346C4.30324 7.23111 4.40116 7.25032 4.5 7.25L6.5 7.25C6.61096 7.25002 6.72054 7.22542 6.82084 7.17798C6.92114 7.13053 7.00967 7.06142 7.08004 6.97563C7.1504 6.88984 7.20086 6.7895 7.22776 6.68186C7.25467 6.57421 7.25735 6.46193 7.23562 6.35312L6.415 2.25L7.03625 2.25L9.32937 6.83562C9.39168 6.96013 9.48741 7.06484 9.60585 7.13803C9.7243 7.21121 9.86077 7.24998 10 7.25L13 7.25C13.1989 7.25 13.3897 7.32902 13.5303 7.46967C13.671 7.61032 13.75 7.80109 13.75 8C13.75 8.19891 13.671 8.38968 13.5303 8.53033C13.3897 8.67098 13.1989 8.75 13 8.75L10 8.75C9.86077 8.75002 9.7243 8.78879 9.60585 8.86197C9.48741 8.93516 9.39168 9.03987 9.32937 9.16438L7.03625 13.75L6.415 13.75Z" fill="white"/>
</svg>
