<svg width="117" height="32" viewBox="0 0 117 32" fill="none" xmlns="http://www.w3.org/2000/svg">
<g clip-path="url(#clip0_347_3637)">
<path d="M8.84211 9.81982L5 20.1898H7.75126L10.2612 13.0098L12.7035 20.1898H15.4548L11.6899 9.81982H8.84211Z" fill="#1DB898"/>
<path d="M19.6736 9.81982H17.0479V20.1898H19.6736V9.81982Z" fill="#1DB898"/>
<path d="M29.5395 14.5801C30.167 13.4101 29.9063 11.7801 29.4044 11.1201C28.912 10.4601 28.0915 9.81006 26.3249 9.81006H22.5117V20.1801H25.1375V16.1701L27.7633 20.1801H30.8234L27.715 15.9301C27.715 15.9301 28.912 15.7501 29.5395 14.5801ZM26.6145 14.2201C26.016 14.5801 25.1375 14.4801 25.1375 14.4801V11.8901C25.1375 11.8901 25.8518 11.8101 26.4407 12.0401C26.8848 12.2101 27.184 12.5801 27.184 13.1301C27.184 13.6801 27.0006 14.0001 26.6145 14.2301V14.2201Z" fill="#1DB898"/>
<path d="M38.0832 13.52C37.5619 13.34 37.3109 13.04 37.3495 12.62C37.3882 12.21 37.7357 11.85 38.2087 11.78C39.1837 11.63 40.236 12.41 40.236 12.41L41.2206 10.42C40.4966 9.96997 39.4154 9.45997 37.8708 9.54997C35.8725 9.66997 34.7334 11.09 34.6465 12.7C34.579 14.03 35.1582 15.16 36.9055 15.79C37.533 16.01 38.4694 16.19 38.7879 16.68C39.1934 17.3 38.7783 18.39 37.3109 18.15C36.307 17.98 35.3319 17.14 35.3319 17.14L34.2314 19.28C34.2314 19.28 35.9305 20.65 38.2763 20.45C41.684 20.16 42.0508 16.89 41.3751 15.55C40.709 14.22 39.1065 13.87 38.0736 13.51L38.0832 13.52Z" fill="#1DB898"/>
<path d="M46.5005 16.1098H49.3096V13.8398H46.5198V12.0198H49.4738V9.81982H43.9326V20.1898H49.6186V17.9198H46.5005V16.1098Z" fill="#1DB898"/>
<path d="M57.004 9.47998C53.9727 9.47998 51.54 11.84 51.54 14.97C51.54 18.1 53.7507 20.53 57.004 20.53C60.2572 20.53 62.4679 18.24 62.4679 14.97C62.4679 11.7 60.0352 9.47998 57.004 9.47998ZM57.004 17.94C55.4208 17.94 54.1851 16.62 54.1851 14.95C54.1851 13.28 55.5173 12.07 57.004 12.07C58.4906 12.07 59.8228 13.33 59.8228 14.95C59.8228 16.57 58.5968 17.94 57.004 17.94Z" fill="#1DB898"/>
<path d="M71.0111 15.9398C71.0111 17.7698 70.0071 18.1098 69.3314 18.1098C68.6556 18.1098 67.4972 17.8598 67.4972 15.8898V9.81982H64.9004V15.9698C64.9004 19.1698 66.6477 20.4698 69.37 20.4698C72.0923 20.4698 73.6272 18.9198 73.6272 16.0998V9.81982H71.0111V15.9398Z" fill="#1DB898"/>
<path d="M79.0432 17.9398V9.81982H76.4561V20.1898H82.0648V19.0298V17.9398H79.0432Z" fill="#1DB898"/>
<path d="M100.995 11.76L98.3593 4.52002H94.0635L88.2617 20.17H92.4128L96.2066 9.34002L97.7994 14.02C98.6489 13.02 99.7398 12.24 100.985 11.76H100.995Z" fill="#1DB898"/>
<path d="M99.8174 19.2704C99.8174 19.5804 99.8463 19.8804 99.9043 20.1704H104.055L102.318 15.3804C100.879 16.0304 99.8174 17.5004 99.8174 19.2604V19.2704Z" fill="#1DB898"/>
<path d="M103.958 11.2202C102.916 11.2202 101.912 11.4102 100.995 11.7702L102.317 15.3902C102.829 15.1602 103.389 15.0302 103.958 15.0302C106.15 15.0302 108.1 16.8802 108.1 19.2702C108.1 21.6602 106.294 23.6702 103.958 23.6702C101.912 23.6702 100.28 22.1902 99.8941 20.1702L97.809 14.0202C96.6216 15.4202 95.9072 17.2402 95.9072 19.3002C95.9072 24.1002 99.1508 27.4802 103.949 27.4802C108.746 27.4802 111.99 24.1002 111.99 19.3002C111.99 14.5002 108.409 11.2202 103.949 11.2202H103.958Z" fill="#B4BBB0"/>
<path d="M99.8175 19.27C99.8175 17.51 100.879 16.04 102.318 15.39L100.995 11.77C99.7499 12.25 98.6591 13.03 97.8096 14.03L99.8947 20.18C99.8368 19.89 99.8079 19.59 99.8079 19.28L99.8175 19.27Z" fill="#028B7F"/>
</g>
<defs>
<clipPath id="clip0_347_3637">
<rect width="107" height="22.96" fill="white" transform="translate(5 4.52002)"/>
</clipPath>
</defs>
</svg>
