<svg width="71" height="71" viewBox="0 0 71 71" fill="none" xmlns="http://www.w3.org/2000/svg">
<circle cx="35.5" cy="35.5" r="35.5" fill="#1987FA"/>
<path d="M36.5401 21C32.5231 21 28.0063 22.0185 24.5863 24.3388C24.2554 24.5257 23.9958 24.8933 24.1191 25.508C24.1905 25.8154 24.4501 27.1594 24.781 27.8946C25.0471 28.5094 25.7025 28.5094 26.0984 28.2623C28.2075 26.9183 32.3608 25.3875 35.982 25.3875C39.7394 25.3875 39.8043 27.0991 39.8043 29.7931V32.1134C34.1325 32.7944 26.0335 34.1987 23.9893 34.9942C21.6855 35.9766 22.0165 40.6292 22.0165 41.7321C22.0165 42.835 23.0029 48 30.1219 48C33.2239 48 37.5005 46.7525 40.0704 45.4627V46.9935C40.0704 47.1743 40.2067 47.4877 40.4663 47.542C40.6674 47.6022 43.7565 47.6625 44.3535 47.6625C44.9505 47.6625 48.4095 47.6806 48.669 47.6203C48.9351 47.56 49 47.2527 49 47.0719V29.1964C48.9935 24.3569 45.2426 21 36.5401 21ZM39.7978 41.9732C38.4091 42.7688 36.6374 43.4438 34.6646 43.4438C31.2381 43.4438 30.8423 41.4248 30.8358 40.7498C30.8358 40.0145 30.6411 38.1763 32.0234 37.5616C33.6003 36.7661 36.897 35.7897 39.7978 35.5426V41.9732Z" fill="white"/>
</svg>
