<svg width="16" height="16" viewBox="0 0 16 16" fill="none" xmlns="http://www.w3.org/2000/svg">
<path d="M2.93154 5.15638L7.61654 9.76738C7.71876 9.86851 7.85675 9.92523 8.00054 9.92523C8.14433 9.92523 8.28232 9.86851 8.38454 9.76738L13.0695 5.15738C13.1724 5.0563 13.3108 4.99967 13.455 4.99967C13.5992 4.99967 13.7377 5.0563 13.8405 5.15738C13.8912 5.20676 13.9314 5.26577 13.9589 5.33095C13.9864 5.39613 14.0006 5.46615 14.0006 5.53688C14.0006 5.60761 13.9864 5.67763 13.9589 5.74281C13.9314 5.80799 13.8912 5.867 13.8405 5.91638L9.15654 10.5264C8.84802 10.8293 8.43292 10.999 8.00054 10.999C7.56816 10.999 7.15306 10.8293 6.84454 10.5264L2.16054 5.91638C2.10974 5.86698 2.06936 5.80791 2.04178 5.74264C2.01421 5.67737 2 5.60723 2 5.53638C2 5.46552 2.01421 5.39539 2.04178 5.33012C2.06936 5.26485 2.10974 5.20577 2.16054 5.15638C2.2634 5.0553 2.40184 4.99867 2.54604 4.99867C2.69025 4.99867 2.82869 5.0553 2.93154 5.15638Z" fill="#A3A3A3"/>
</svg>
