<svg width="26" height="26" viewBox="0 0 26 26" fill="none" xmlns="http://www.w3.org/2000/svg">
<path d="M17.2921 11.689L10.9246 5.33277C10.8201 5.22733 10.6956 5.14364 10.5585 5.08652C10.4214 5.02941 10.2744 5 10.1259 5C9.97738 5 9.83033 5.02941 9.69324 5.08652C9.55615 5.14364 9.43172 5.22733 9.32714 5.33277C9.11761 5.54356 9 5.82869 9 6.1259C9 6.42311 9.11761 6.70824 9.32714 6.91902L14.8959 12.544L9.32714 18.1128C9.11761 18.3236 9 18.6087 9 18.9059C9 19.2031 9.11761 19.4882 9.32714 19.699C9.43133 19.8053 9.55558 19.8899 9.69269 19.9478C9.8298 20.0058 9.97705 20.0359 10.1259 20.0365C10.2747 20.0359 10.422 20.0058 10.5591 19.9478C10.6962 19.8899 10.8205 19.8053 10.9246 19.699L17.2921 13.3428C17.4063 13.2374 17.4975 13.1096 17.5598 12.9673C17.6221 12.8249 17.6543 12.6713 17.6543 12.5159C17.6543 12.3605 17.6221 12.2069 17.5598 12.0645C17.4975 11.9222 17.4063 11.7944 17.2921 11.689Z" fill="#A3A3A3"/>
</svg>
