<svg width="28" height="28" viewBox="0 0 28 28" fill="none" xmlns="http://www.w3.org/2000/svg">
<circle cx="14" cy="14" r="13.5" fill="white" stroke="#E0E0E0"/>
<path d="M20.25 8.375H18.0844L17.0195 6.77813C16.9625 6.69262 16.8852 6.6225 16.7946 6.57399C16.704 6.52548 16.6028 6.50006 16.5 6.5H11.5C11.3972 6.50006 11.296 6.52548 11.2054 6.57399C11.1148 6.6225 11.0375 6.69262 10.9805 6.77813L9.91484 8.375H7.75C7.25272 8.375 6.77581 8.57254 6.42417 8.92417C6.07254 9.27581 5.875 9.75272 5.875 10.25V19C5.875 19.4973 6.07254 19.9742 6.42417 20.3258C6.77581 20.6775 7.25272 20.875 7.75 20.875H20.25C20.7473 20.875 21.2242 20.6775 21.5758 20.3258C21.9275 19.9742 22.125 19.4973 22.125 19V10.25C22.125 9.75272 21.9275 9.27581 21.5758 8.92417C21.2242 8.57254 20.7473 8.375 20.25 8.375ZM16.8125 14.3125C16.8125 14.8688 16.6475 15.4125 16.3385 15.875C16.0295 16.3376 15.5902 16.698 15.0763 16.9109C14.5624 17.1238 13.9969 17.1795 13.4513 17.071C12.9057 16.9624 12.4046 16.6946 12.0113 16.3012C11.6179 15.9079 11.3501 15.4068 11.2415 14.8612C11.133 14.3156 11.1887 13.7501 11.4016 13.2362C11.6145 12.7223 11.9749 12.283 12.4375 11.974C12.9 11.665 13.4437 11.5 14 11.5C14.7459 11.5 15.4613 11.7963 15.9887 12.3238C16.5162 12.8512 16.8125 13.5666 16.8125 14.3125Z" fill="#666666"/>
</svg>
