<svg width="24" height="24" viewBox="0 0 24 24" fill="none" xmlns="http://www.w3.org/2000/svg">
<path d="M15.3748 5.25017C15.3748 4.9518 15.4933 4.66566 15.7043 4.45468C15.9153 4.2437 16.2014 4.12517 16.4998 4.12517H17.6248V3.00017C17.6248 2.7018 17.7433 2.41566 17.9543 2.20468C18.1653 1.9937 18.4514 1.87517 18.7498 1.87517C19.0482 1.87517 19.3343 1.9937 19.5453 2.20468C19.7563 2.41566 19.8748 2.7018 19.8748 3.00017V4.12517H20.9998C21.2982 4.12517 21.5843 4.2437 21.7953 4.45468C22.0063 4.66566 22.1248 4.9518 22.1248 5.25017C22.1248 5.54854 22.0063 5.83469 21.7953 6.04567C21.5843 6.25665 21.2982 6.37517 20.9998 6.37517H19.8748V7.50017C19.8748 7.79854 19.7563 8.08469 19.5453 8.29567C19.3343 8.50665 19.0482 8.62517 18.7498 8.62517C18.4514 8.62517 18.1653 8.50665 17.9543 8.29567C17.7433 8.08469 17.6248 7.79854 17.6248 7.50017V6.37517H16.4998C16.2014 6.37517 15.9153 6.25665 15.7043 6.04567C15.4933 5.83469 15.3748 5.54854 15.3748 5.25017ZM21.9851 10.3127C22.3404 12.427 22.0147 14.5995 21.0548 16.5166C20.095 18.4337 18.5508 19.9962 16.6451 20.9785C14.7395 21.9608 12.5709 22.3121 10.4526 21.9817C8.33426 21.6513 6.37572 20.6563 4.85972 19.1403C3.34372 17.6243 2.3487 15.6657 2.01829 13.5474C1.68789 11.4291 2.0392 9.26053 3.02151 7.35486C4.00382 5.44919 5.56631 3.90498 7.4834 2.94516C9.4005 1.98533 11.573 1.65956 13.6873 2.01486C13.9816 2.06459 14.244 2.22918 14.4169 2.47242C14.5899 2.71566 14.6591 3.01763 14.6093 3.31189C14.5596 3.60616 14.395 3.86862 14.1518 4.04153C13.9085 4.21445 13.6066 4.28365 13.3123 4.23392C12.8786 4.16152 12.4396 4.12515 11.9998 4.12517C10.5215 4.12417 9.07276 4.53961 7.81962 5.3239C6.56648 6.10819 5.5596 7.2296 4.91433 8.55967C4.26906 9.88975 4.01149 11.3747 4.17114 12.8444C4.33078 14.3141 4.90118 15.7091 5.817 16.8695C6.54617 15.9421 7.47559 15.1915 8.53575 14.6739C7.8601 13.9897 7.40188 13.121 7.21874 12.177C7.03559 11.2331 7.1357 10.256 7.50647 9.36879C7.87724 8.48157 8.50211 7.72382 9.30247 7.19085C10.1028 6.65789 11.0429 6.37352 12.0045 6.37352C12.9661 6.37352 13.9062 6.65789 14.7065 7.19085C15.5069 7.72382 16.1318 8.48157 16.5025 9.36879C16.8733 10.256 16.9734 11.2331 16.7903 12.177C16.6071 13.121 16.1489 13.9897 15.4732 14.6739C16.5336 15.1912 17.4631 15.9418 18.192 16.8695C19.2862 15.4827 19.8792 13.7667 19.8748 12.0002C19.8748 11.5604 19.8384 11.1214 19.7661 10.6877C19.7163 10.3934 19.7855 10.0914 19.9585 9.8482C20.1314 9.60496 20.3938 9.44037 20.6881 9.39064C20.9824 9.34091 21.2843 9.41012 21.5276 9.58303C21.7708 9.75595 21.9354 10.0184 21.9851 10.3127ZM11.9998 13.8752C12.519 13.8752 13.0265 13.7212 13.4582 13.4328C13.8899 13.1443 14.2263 12.7344 14.425 12.2547C14.6237 11.7751 14.6757 11.2473 14.5744 10.7381C14.4731 10.2289 14.2231 9.76113 13.856 9.39402C13.4889 9.02691 13.0211 8.7769 12.5119 8.67561C12.0027 8.57433 11.4749 8.62631 10.9953 8.82499C10.5156 9.02367 10.1056 9.36012 9.8172 9.7918C9.52876 10.2235 9.37481 10.731 9.37481 11.2502C9.37481 11.9464 9.65137 12.614 10.1437 13.1063C10.6359 13.5986 11.3036 13.8752 11.9998 13.8752ZM11.9998 19.8752C13.6268 19.8763 15.2137 19.3707 16.5401 18.4286C16.0179 17.7145 15.3345 17.1337 14.5456 16.7333C13.7567 16.3329 12.8845 16.1242 11.9998 16.1242C11.1151 16.1242 10.2429 16.3329 9.45399 16.7333C8.66509 17.1337 7.98175 17.7145 7.4595 18.4286C8.78592 19.3707 10.3728 19.8763 11.9998 19.8752Z" fill="#666666"/>
</svg>
