<svg width="72" height="72" viewBox="0 0 72 72" fill="none" xmlns="http://www.w3.org/2000/svg">
<g filter="url(#filter0_d_347_4052)">
<rect x="4" y="4" width="64" height="64" rx="32" fill="white"/>
<path d="M53.6339 27.9124C54.6732 27.9124 55.6699 28.3384 56.4048 29.0967C57.1397 29.8549 57.5525 30.8833 57.5525 31.9557V40.0422C57.5525 41.1145 57.1397 42.143 56.4048 42.9012C55.6699 43.6595 54.6732 44.0855 53.6339 44.0855V44.0855C52.446 44.0855 51.4626 44.978 51.1726 46.1299C50.3904 49.2369 48.7249 52.0502 46.3686 54.1941C44.0129 56.3375 41.1002 57.6905 38.0156 58.1028C36.9089 58.2508 35.9999 57.3318 35.9999 56.2153V56.2153C35.9999 55.0988 36.912 54.2117 38.0111 54.0148C40.3824 53.59 42.5879 52.4205 44.3126 50.6409C46.5173 48.3661 47.7559 45.2808 47.7559 42.0638V29.934C47.7559 26.717 46.5173 23.6318 44.3126 21.357C42.108 19.0822 39.1178 17.8043 35.9999 17.8043C32.882 17.8043 29.8918 19.0822 27.6872 21.357C25.4825 23.6318 24.2439 26.717 24.2439 29.934V38.2075C24.2439 41.4538 21.6123 44.0855 18.3659 44.0855V44.0855C17.3266 44.0855 16.3299 43.6595 15.595 42.9012C14.8601 42.143 14.4473 41.1145 14.4473 40.0422V31.9557C14.4473 30.8833 14.8601 29.8549 15.595 29.0967C16.3299 28.3384 17.3266 27.9124 18.3659 27.9124V27.9124C19.5539 27.9124 20.5374 27.02 20.8277 25.868C21.6104 22.7617 23.2762 19.949 25.6322 17.8056C28.4958 15.2006 32.1822 13.7632 35.9999 13.7632C39.8175 13.7632 43.504 15.2006 46.3675 17.8056C48.7236 19.949 50.3894 22.7617 51.1721 25.8681C51.4624 27.02 52.4459 27.9124 53.6339 27.9124V27.9124ZM29.3882 44.6019C28.4115 44.1325 28.1389 42.9136 28.7003 41.9867V41.9867C29.2855 41.0206 30.5498 40.7473 31.5921 41.1825C32.9865 41.7647 34.4828 42.0665 35.9999 42.0638C37.517 42.0665 39.0133 41.7647 40.4077 41.1825C41.45 40.7473 42.7143 41.0206 43.2994 41.9867V41.9867C43.8609 42.9136 43.5883 44.1325 42.6116 44.6019C40.5482 45.5937 38.2918 46.111 35.9999 46.1071C33.708 46.111 31.4516 45.5937 29.3882 44.6019Z" fill="url(#paint0_linear_347_4052)"/>
</g>
<defs>
<filter id="filter0_d_347_4052" x="0" y="0" width="72" height="72" filterUnits="userSpaceOnUse" color-interpolation-filters="sRGB">
<feFlood flood-opacity="0" result="BackgroundImageFix"/>
<feColorMatrix in="SourceAlpha" type="matrix" values="0 0 0 0 0 0 0 0 0 0 0 0 0 0 0 0 0 0 127 0" result="hardAlpha"/>
<feOffset/>
<feGaussianBlur stdDeviation="2"/>
<feComposite in2="hardAlpha" operator="out"/>
<feColorMatrix type="matrix" values="0 0 0 0 0 0 0 0 0 0 0 0 0 0 0 0 0 0 0.25 0"/>
<feBlend mode="normal" in2="BackgroundImageFix" result="effect1_dropShadow_347_4052"/>
<feBlend mode="normal" in="SourceGraphic" in2="effect1_dropShadow_347_4052" result="shape"/>
</filter>
<linearGradient id="paint0_linear_347_4052" x1="14.4473" y1="13.7632" x2="58.5083" y2="51.7927" gradientUnits="userSpaceOnUse">
<stop stop-color="#1987FA"/>
<stop offset="1" stop-color="#10C2A0"/>
</linearGradient>
</defs>
</svg>
