<svg width="20" height="20" viewBox="0 0 20 20" fill="none" xmlns="http://www.w3.org/2000/svg">
<path d="M16.2887 14.9615C16.4649 15.1376 16.5638 15.3765 16.5638 15.6256C16.5638 15.8746 16.4649 16.1135 16.2887 16.2896C16.1126 16.4657 15.8737 16.5647 15.6247 16.5647C15.3756 16.5647 15.1367 16.4657 14.9606 16.2896L10.0005 11.3279L5.03874 16.2881C4.86261 16.4642 4.62374 16.5631 4.37467 16.5631C4.1256 16.5631 3.88673 16.4642 3.71061 16.2881C3.53449 16.1119 3.43555 15.8731 3.43555 15.624C3.43555 15.3749 3.53449 15.136 3.71061 14.9599L8.67233 9.99977L3.71217 5.03805C3.53605 4.86193 3.43711 4.62306 3.43711 4.37399C3.43711 4.12492 3.53605 3.88605 3.71217 3.70993C3.88829 3.53381 4.12716 3.43486 4.37624 3.43486C4.62531 3.43486 4.86418 3.53381 5.0403 3.70993L10.0005 8.67165L14.9622 3.70915C15.1383 3.53303 15.3772 3.43408 15.6262 3.43408C15.8753 3.43408 16.1142 3.53303 16.2903 3.70915C16.4664 3.88527 16.5654 4.12414 16.5654 4.37321C16.5654 4.62228 16.4664 4.86115 16.2903 5.03727L11.3286 9.99977L16.2887 14.9615Z" fill="#666666"/>
</svg>
