<svg width="32" height="32" viewBox="0 0 32 32" fill="none" xmlns="http://www.w3.org/2000/svg">
<path d="M21.8629 26.8049H24.2446V14.9024H17.0995V26.8049H19.4812V17.878H21.8629V26.8049ZM5.19086 26.8049V4.4878C5.19086 4.09321 5.31633 3.71479 5.53966 3.43577C5.76298 3.15675 6.06588 3 6.38172 3H23.0538C23.3696 3 23.6725 3.15675 23.8958 3.43577C24.1192 3.71479 24.2446 4.09321 24.2446 4.4878V11.9268H26.6263V26.8049H27.8172V29.7805H4V26.8049H5.19086ZM9.9543 14.9024V17.878H12.336V14.9024H9.9543ZM9.9543 20.8537V23.8293H12.336V20.8537H9.9543ZM9.9543 8.95122V11.9268H12.336V8.95122H9.9543Z" fill="url(#paint0_linear_11_664)"/>
<defs>
<linearGradient id="paint0_linear_11_664" x1="4" y1="3" x2="30.1068" y2="23.6759" gradientUnits="userSpaceOnUse">
<stop stop-color="#1987FA"/>
<stop offset="1" stop-color="#10C2A0"/>
</linearGradient>
</defs>
</svg>
