<svg width="28" height="28" viewBox="0 0 28 28" fill="none" xmlns="http://www.w3.org/2000/svg">
<g clip-path="url(#clip0_11_660)">
<path d="M4.861 8.94445L9.33322 10.2356L14.2488 6.66556L7.19433 6.86778C7.12513 6.87083 7.058 6.89232 6.99989 6.93L4.76766 8.21334C4.69823 8.25181 4.64193 8.31023 4.60605 8.38104C4.57018 8.45185 4.55637 8.5318 4.56643 8.61054C4.57648 8.68928 4.60992 8.7632 4.66244 8.82272C4.71495 8.88225 4.78412 8.92465 4.861 8.94445Z" fill="white"/>
<path d="M26.6975 3.44659L22.3211 2.26627C21.9531 2.16644 21.5721 2.1667 21.2042 2.26703C20.8362 2.36736 20.4898 2.56542 20.1885 2.84775L6.96896 14.8506L3.79432 14.677C3.61248 14.6693 3.4333 14.7332 3.28206 14.8595C3.13083 14.9859 3.01519 15.1684 2.95147 15.3814C2.88775 15.5943 2.87918 15.8268 2.92696 16.0462C2.97474 16.2655 3.07646 16.4605 3.21775 16.6037L6.30902 19.6674C6.35992 19.7187 6.42049 19.7528 6.48495 19.7665C6.54942 19.7801 6.61561 19.7729 6.6772 19.7455C7.55943 19.3202 10.8452 17.1418 14.7284 14.4774L15.5064 24.4668C15.513 24.5533 15.5384 24.6359 15.5798 24.7058C15.6213 24.7756 15.6772 24.8299 15.7415 24.863C15.8058 24.896 15.8762 24.9065 15.9449 24.8933C16.0137 24.88 16.0782 24.8436 16.1316 24.7879L17.8683 22.9827C17.9634 22.8831 18.0273 22.7448 18.0489 22.5922L19.6953 11.058C22.474 9.13125 25.1276 7.26529 26.9963 5.94611C27.1902 5.81427 27.347 5.61115 27.4454 5.36426C27.5438 5.11737 27.5791 4.83864 27.5465 4.56584C27.5139 4.29304 27.415 4.03936 27.2631 3.83915C27.1113 3.63895 26.9138 3.50191 26.6975 3.44659Z" fill="white"/>
</g>
<defs>
<clipPath id="clip0_11_660">
<rect width="28" height="28" fill="white"/>
</clipPath>
</defs>
</svg>
