<svg width="32" height="32" viewBox="0 0 32 32" fill="none" xmlns="http://www.w3.org/2000/svg">
<path d="M28.5 6V12C28.5 12.3978 28.342 12.7794 28.0607 13.0607C27.7794 13.342 27.3978 13.5 27 13.5H21C20.6022 13.5 20.2206 13.342 19.9393 13.0607C19.658 12.7794 19.5 12.3978 19.5 12C19.5 11.6022 19.658 11.2206 19.9393 10.9393C20.2206 10.658 20.6022 10.5 21 10.5H23.375L22.4 9.525C20.6348 7.75102 18.2376 6.75025 15.735 6.7425H15.6812C13.201 6.73707 10.8183 7.70837 9.04875 9.44625C8.76431 9.72439 8.38102 9.87815 7.98321 9.8737C7.58539 9.86924 7.20565 9.70694 6.9275 9.4225C6.64935 9.13805 6.4956 8.75477 6.50005 8.35696C6.5045 7.95914 6.66681 7.57939 6.95125 7.30125C9.28152 5.01307 12.4191 3.73458 15.685 3.7425H15.75C19.0447 3.75148 22.201 5.0684 24.525 7.40375L25.5 8.375V6C25.5 5.60217 25.658 5.22064 25.9393 4.93934C26.2206 4.65803 26.6022 4.5 27 4.5C27.3978 4.5 27.7794 4.65803 28.0607 4.93934C28.342 5.22064 28.5 5.60217 28.5 6ZM22.9513 22.5537C21.1807 24.2925 18.7965 25.2639 16.315 25.2575H16.2612C13.7587 25.2498 11.3615 24.249 9.59625 22.475L8.625 21.5H11C11.3978 21.5 11.7794 21.342 12.0607 21.0607C12.342 20.7794 12.5 20.3978 12.5 20C12.5 19.6022 12.342 19.2206 12.0607 18.9393C11.7794 18.658 11.3978 18.5 11 18.5H5C4.60218 18.5 4.22064 18.658 3.93934 18.9393C3.65804 19.2206 3.5 19.6022 3.5 20V26C3.5 26.3978 3.65804 26.7794 3.93934 27.0607C4.22064 27.342 4.60218 27.5 5 27.5C5.39782 27.5 5.77936 27.342 6.06066 27.0607C6.34196 26.7794 6.5 26.3978 6.5 26V23.625L7.475 24.6C9.79965 26.934 12.9559 28.2495 16.25 28.2575H16.32C19.5859 28.2654 22.7235 26.9869 25.0537 24.6987C25.1946 24.561 25.3069 24.3969 25.3843 24.2158C25.4618 24.0346 25.5027 23.84 25.5049 23.643C25.5072 23.4461 25.4705 23.2506 25.3972 23.0678C25.3239 22.8849 25.2152 22.7183 25.0775 22.5775C24.9398 22.4367 24.7757 22.3243 24.5945 22.2469C24.4134 22.1695 24.2188 22.1285 24.0218 22.1263C23.8248 22.1241 23.6293 22.1607 23.4465 22.234C23.2637 22.3074 23.0971 22.416 22.9562 22.5537H22.9513Z" fill="#0D99FF"/>
</svg>
