<svg width="19" height="15" viewBox="0 0 19 15" fill="none" xmlns="http://www.w3.org/2000/svg">
<path d="M12.2999 2.82598V0.538976C12.2999 0.149976 12.7999 -0.0490238 13.1009 0.218976L17.7059 4.31298C17.7521 4.35241 17.7892 4.40139 17.8147 4.45655C17.8401 4.51171 17.8533 4.57173 17.8533 4.63248C17.8533 4.69322 17.8401 4.75324 17.8147 4.8084C17.7892 4.86356 17.7521 4.91255 17.7059 4.95198L13.1009 9.04598C12.7999 9.31398 12.2999 9.11498 12.2999 8.72598V6.43898H10.2619C8.70689 6.43898 7.51689 6.87098 6.62889 7.58898C6.32089 7.83898 6.07189 8.10498 5.87889 8.36898C5.76589 8.52398 5.69889 8.63898 5.67289 8.69398C5.45489 9.14998 4.71889 8.97298 4.76689 8.47598C5.07189 5.26398 7.26989 2.82598 10.3629 2.82598H12.2999ZM16.6909 4.63198L13.2479 1.57198V3.26798C13.2479 3.51198 13.0359 3.70998 12.7739 3.70998H10.3639C8.37589 3.70998 6.81389 4.96298 6.10089 6.84798C7.14689 6.03798 8.52589 5.55498 10.2619 5.55498H12.7739C13.0359 5.55498 13.2479 5.75298 13.2479 5.99698V7.69298L16.6909 4.63198Z" fill="#5398F5"/>
<path d="M13.496 13.9959V10.5879H14.496V14.9959H0.5V3.00293H5.412V4.00293H1.5V13.9959H13.496Z" fill="#5398F5"/>
</svg>
