<svg width="122" height="30" viewBox="0 0 122 30" fill="none" xmlns="http://www.w3.org/2000/svg">
<path d="M5.71218 13.1818H18.3361V16.9886H6.68325C5.95971 17.0265 5.35993 17.3011 4.88392 17.8125C4.4079 18.3239 4.05565 18.911 3.82716 19.5739C3.61772 20.2178 3.51299 20.8807 3.51299 21.5625C3.51299 22.2443 3.61772 22.9167 3.82716 23.5795C4.05565 24.2235 4.4079 24.8011 4.88392 25.3125C5.35993 25.8239 5.95971 26.0985 6.68325 26.1364H18.3361V29.9432H5.71218C4.37934 29.8674 3.27499 29.3655 2.39912 28.4375C1.54229 27.4905 0.92347 26.4205 0.542657 25.2273C0.180886 24.0341 0 22.8125 0 21.5625C0 20.3125 0.190406 19.0909 0.571218 17.8977C0.952031 16.7045 1.57085 15.6439 2.42768 14.7159C3.28451 13.7689 4.37934 13.2576 5.71218 13.1818ZM18.2219 23.3523H6.51189V19.5455H18.2219V23.3523Z" fill="#1A1A1A"/>
<path d="M21.2493 13.1818H39.4712C40.0043 13.1818 40.4613 13.3617 40.8421 13.7216C41.2039 14.1004 41.3848 14.5549 41.3848 15.0852C41.3848 15.6155 41.2039 16.0606 40.8421 16.4205C40.7279 16.5341 40.6136 16.6288 40.4994 16.7045L28.3896 26.0795H41.0706V29.8864H22.8487C22.3156 29.8864 21.8681 29.697 21.5064 29.3182C21.1256 28.9583 20.9352 28.5133 20.9352 27.983C20.9352 27.4905 21.097 27.0644 21.4207 26.7045H21.3921L21.5064 26.6193C21.6206 26.5057 21.7444 26.411 21.8777 26.3352L34.1303 16.9886H21.2493V13.1818Z" fill="#1A1A1A"/>
<path d="M57.2238 19.0909H67.4568L66.1838 15.487C65.6615 14.1558 65.1393 12.9058 64.617 11.737C64.1274 10.5357 63.5562 9.44805 62.9034 8.47403C62.3158 7.5 61.6467 6.98052 60.896 6.91558C60.1126 6.98052 59.4108 7.5 58.7906 8.47403C58.1704 9.44805 57.5992 10.5357 57.077 11.737C56.5873 12.9058 56.0814 14.1558 55.5591 15.487L50.2223 30H42.976L49.9286 12.1753C51.4301 8.53896 52.9315 5.60065 54.433 3.36039C55.9019 1.1526 58.0562 0.0324675 60.896 0C63.7031 0.0324675 65.8411 1.1526 67.3099 3.36039C68.8114 5.53571 70.3129 8.47403 71.8144 12.1753L78.8159 30H71.3737L69.807 25.6169H57.2238V19.0909Z" fill="url(#paint0_linear_43_379)"/>
<path d="M80.6723 26.1364H87.7555V16.9886H80.6723V13.1818H98.6657V16.9886H91.6112V26.1364H98.6657V29.9432H80.6723V26.1364Z" fill="#1A1A1A"/>
<path d="M105.692 29.9716H101.836V15.0284C101.855 14.4981 102.055 14.0625 102.436 13.7216C102.817 13.3617 103.274 13.1818 103.807 13.1818H115.774C115.888 13.1818 116.002 13.1913 116.116 13.2102H116.288C117.621 13.2481 118.715 13.5511 119.572 14.1193C120.429 14.6875 121.048 15.3409 121.429 16.0795C121.81 16.7992 122 17.5284 122 18.267C122 19.0246 121.81 19.7727 121.429 20.5114C121.067 21.2311 120.448 21.875 119.572 22.4432C118.715 23.0114 117.621 23.3144 116.288 23.3523H111.261C111.413 24.2992 111.728 25 112.204 25.4545C112.661 25.9091 113.241 26.1364 113.946 26.1364H121.714V29.9432H113.432C112.023 29.9621 110.747 29.4129 109.605 28.2955C108.462 27.178 107.767 25.8523 107.52 24.3182C107.177 22.6136 107.006 21.6572 107.006 21.4489C107.006 20.9186 107.186 20.4735 107.548 20.1136C107.929 19.7348 108.386 19.5455 108.919 19.5455H116.459C116.821 19.5265 117.116 19.4508 117.345 19.3182C117.592 19.1667 117.773 19.0057 117.887 18.8352C118.001 18.6458 118.059 18.4564 118.059 18.267C118.059 18.0777 118.001 17.8977 117.887 17.7273C117.773 17.5379 117.592 17.3769 117.345 17.2443C117.116 17.0928 116.821 17.0076 116.459 16.9886H106.434C105.939 17.0076 105.692 17.2538 105.692 17.7273V29.9716Z" fill="#1A1A1A"/>
<defs>
<linearGradient id="paint0_linear_43_379" x1="0" y1="0" x2="15.417" y2="55.8313" gradientUnits="userSpaceOnUse">
<stop stop-color="#1987FA"/>
<stop offset="1" stop-color="#10C2A0"/>
</linearGradient>
</defs>
</svg>
