<svg width="92" height="23" viewBox="0 0 92 23" fill="none" xmlns="http://www.w3.org/2000/svg">
<path d="M4.30755 10.1061H13.8272V13.0246H5.03983C4.49421 13.0537 4.04192 13.2642 3.68295 13.6563C3.32399 14.0483 3.05836 14.4984 2.88606 15.0066C2.72811 15.5003 2.64914 16.0085 2.64914 16.5313C2.64914 17.054 2.72811 17.5694 2.88606 18.0777C3.05836 18.5713 3.32399 19.0142 3.68295 19.4063C4.04192 19.7983 4.49421 20.0088 5.03983 20.0379H13.8272V22.9564H4.30755C3.30245 22.8984 2.46966 22.5136 1.80917 21.8021C1.16304 21.0761 0.696387 20.2557 0.409217 19.3409C0.136406 18.4261 0 17.4896 0 16.5313C0 15.5729 0.143585 14.6364 0.430755 13.7216C0.717925 12.8068 1.18458 11.9937 1.83071 11.2822C2.47684 10.5562 3.30245 10.1641 4.30755 10.1061ZM13.7411 17.9034H4.9106V14.9848H13.7411V17.9034Z" fill="white"/>
<path d="M16.0241 10.1061H29.7652C30.1672 10.1061 30.5118 10.244 30.799 10.5199C31.0718 10.8103 31.2082 11.1588 31.2082 11.5653C31.2082 11.9719 31.0718 12.3131 30.799 12.589C30.7128 12.6761 30.6267 12.7487 30.5405 12.8068L21.4085 19.9943H30.9713V22.9129H17.2302C16.8282 22.9129 16.4907 22.7677 16.2179 22.4773C15.9307 22.2014 15.7872 21.8602 15.7872 21.4536C15.7872 21.0761 15.9092 20.7494 16.1533 20.4735H16.1318L16.2179 20.4081C16.3041 20.321 16.3974 20.2484 16.4979 20.1903L25.7376 13.0246H16.0241V10.1061Z" fill="white"/>
<path d="M43.1524 14.6364H50.8691L49.9091 11.8734C49.5153 10.8528 49.1214 9.89448 48.7276 8.99838C48.3584 8.07738 47.9276 7.24351 47.4353 6.49675C46.9923 5.75 46.4877 5.35173 45.9215 5.30195C45.3308 5.35173 44.8016 5.75 44.3339 6.49675C43.8662 7.24351 43.4355 8.07738 43.0416 8.99838C42.6724 9.89448 42.2909 10.8528 41.8971 11.8734L37.8726 23H32.4081L37.651 9.33442C38.7833 6.54654 39.9156 4.29383 41.0479 2.5763C42.1555 0.883658 43.7801 0.0248918 45.9215 0C48.0384 0.0248918 49.6506 0.883658 50.7583 2.5763C51.8906 4.24405 53.0228 6.49675 54.1551 9.33442L59.4349 23H53.8228L52.6413 19.6396H43.1524V14.6364Z" fill="white"/>
<path d="M60.8349 20.0379H66.1763V13.0246H60.8349V10.1061H74.4037V13.0246H69.0838V20.0379H74.4037V22.9564H60.8349V20.0379Z" fill="white"/>
<path d="M79.7019 22.9782H76.7944V11.5218C76.8087 11.1152 76.9595 10.7813 77.2466 10.5199C77.5338 10.244 77.8784 10.1061 78.2805 10.1061H87.3048C87.3909 10.1061 87.4771 10.1133 87.5632 10.1278H87.6925C88.6975 10.1569 89.5232 10.3892 90.1693 10.8248C90.8154 11.2604 91.2821 11.7614 91.5692 12.3277C91.8564 12.8794 92 13.4384 92 14.0047C92 14.5855 91.8564 15.1591 91.5692 15.7254C91.2964 16.2771 90.8298 16.7708 90.1693 17.2064C89.5232 17.642 88.6975 17.8744 87.6925 17.9034H83.9018C84.0167 18.6294 84.2536 19.1667 84.6126 19.5152C84.9572 19.8636 85.3951 20.0379 85.9264 20.0379H91.7846V22.9564H85.5387C84.4761 22.971 83.5141 22.5499 82.6526 21.6932C81.7911 20.8365 81.267 19.8201 81.0804 18.6439C80.8219 17.3371 80.6927 16.6039 80.6927 16.4441C80.6927 16.0376 80.8291 15.6963 81.1019 15.4205C81.3891 15.1301 81.7337 14.9848 82.1357 14.9848H87.8217C88.0945 14.9703 88.317 14.9122 88.4894 14.8106C88.676 14.6944 88.8124 14.571 88.8986 14.4403C88.9847 14.2951 89.0278 14.1499 89.0278 14.0047C89.0278 13.8595 88.9847 13.7216 88.8986 13.5909C88.8124 13.4457 88.676 13.3223 88.4894 13.2206C88.317 13.1045 88.0945 13.0391 87.8217 13.0246H80.2619C79.8886 13.0391 79.7019 13.2279 79.7019 13.5909V22.9782Z" fill="white"/>
</svg>
