<svg width="26" height="26" viewBox="0 0 26 26" fill="none" xmlns="http://www.w3.org/2000/svg">
<path d="M23.6364 8.27186C24.2632 8.27186 24.8644 8.5209 25.3077 8.96419C25.751 9.40748 26 10.0087 26 10.6356V15.3631C26 15.99 25.751 16.5913 25.3077 17.0345C24.8644 17.4778 24.2632 17.7269 23.6364 17.7269H22.3813C22.0934 20.0119 20.9814 22.1133 19.2541 23.6365C17.5268 25.1598 15.303 26.0002 13 26V23.6362C14.8806 23.6362 16.6842 22.8891 18.014 21.5593C19.3438 20.2294 20.0909 18.4257 20.0909 16.545V9.45374C20.0909 7.57302 19.3438 5.76933 18.014 4.43946C16.6842 3.10959 14.8806 2.36248 13 2.36248C11.1194 2.36248 9.31577 3.10959 7.98597 4.43946C6.65617 5.76933 5.90909 7.57302 5.90909 9.45374V17.7269H2.36364C1.73676 17.7269 1.13556 17.4778 0.692293 17.0345C0.249025 16.5913 0 15.99 0 15.3631V10.6356C0 10.0087 0.249025 9.40748 0.692293 8.96419C1.13556 8.5209 1.73676 8.27186 2.36364 8.27186H3.61873C3.90713 5.98717 5.01928 3.88624 6.7465 2.36328C8.47372 0.840317 10.6973 0 13 0C15.3027 0 17.5263 0.840317 19.2535 2.36328C20.9807 3.88624 22.0929 5.98717 22.3813 8.27186H23.6364ZM7.98909 17.4728L9.24182 15.4683C10.3681 16.174 11.6709 16.5473 13 16.545C14.3291 16.5473 15.6319 16.174 16.7582 15.4683L18.0109 17.4728C16.5092 18.4139 14.7722 18.9117 13 18.9087C11.2278 18.9117 9.4908 18.4139 7.98909 17.4728Z" fill="white"/>
</svg>
